<?xml version="1.0" encoding="UTF-8"?>
<svg xmlns="http://www.w3.org/2000/svg" viewBox="0 0 500 500">
  <g id="Layer_2">
    <rect width="500" height="500" fill="none"/>
  </g>
  <g id="Layer_1">
    <path d="M488.57,453.55l-145.21-146.8c56.65-73.8,51.6-180.23-15.62-248.18h0C254.36-15.62,134.31-16.27,60.12,57.11,24.19,92.66,4.25,140.07,3.97,190.62c-.27,50.55,19.15,98.17,54.7,134.11,35.55,35.94,82.96,55.88,133.51,56.15.36,0,.7,0,1.06,0,41.45,0,80.87-13.29,113.46-37.81l145.19,146.78c5.05,5.1,11.7,7.66,18.35,7.66s13.12-2.48,18.15-7.46c10.13-10.02,10.22-26.36.2-36.49ZM193.23,329.27c-.26,0-.51,0-.77,0-36.76-.2-71.24-14.7-97.1-40.84-25.85-26.13-39.98-60.77-39.78-97.53s14.7-71.24,40.84-97.1c26.78-26.5,61.79-39.72,96.78-39.72s70.98,13.61,97.85,40.77c53.37,53.95,52.89,141.26-1.06,194.63-25.95,25.67-60.29,39.78-96.76,39.78Z" fill="#f2f2f2"/>
  </g>
</svg>