<?xml version="1.0" encoding="UTF-8"?>
<svg xmlns="http://www.w3.org/2000/svg" viewBox="0 0 500 500">
  <g id="Layer_2">
    <rect width="500" height="500" fill="none"/>
  </g>
  <g id="Layer_1">
    <g>
      <path d="M259.95,52.15l22.03,2.32,3.35,12.49,6.5.68-13.49-50.25-6.5-.68h0s-.64-.07-.64-.07l-23.65,46.34,6.5.68,5.9-11.52ZM274,24.72l6.37,23.73-17.57-1.85,11.2-21.88Z"/>
      <path d="M303.61,71.41c2.89,2.1,5.97,3.73,9.22,4.9,5.08,1.82,9.64,2.14,13.69.96,4.05-1.19,6.82-3.85,8.3-7.99,1.25-3.47.95-6.64-.89-9.49s-5.26-5.95-10.24-9.3c-2.76-1.85-4.82-3.34-6.2-4.49-1.37-1.15-2.34-2.39-2.89-3.72-.55-1.33-.53-2.84.08-4.53.83-2.32,2.53-3.78,5.09-4.4,2.56-.61,5.6-.29,9.12.97,4.05,1.46,8.05,3.85,11.98,7.17l3.74-4.32c-4.54-3.89-9.12-6.67-13.75-8.33-3.3-1.18-6.44-1.74-9.44-1.66-3,.08-5.59.83-7.79,2.26-2.2,1.42-3.77,3.47-4.73,6.15-.91,2.54-1.12,4.83-.62,6.87.5,2.04,1.67,4.03,3.51,5.98,1.84,1.94,4.51,4.15,8,6.61,2.67,1.81,4.68,3.28,6.04,4.4,1.36,1.12,2.35,2.35,2.97,3.71.62,1.35.63,2.86.04,4.5-.83,2.32-2.53,3.75-5.08,4.28-2.56.54-5.62.17-9.18-1.11-2.67-.96-5.32-2.4-7.95-4.33-2.63-1.92-4.7-3.86-6.21-5.81l-3.8,4.07c1.77,2.35,4.1,4.57,7,6.66Z"/>
      <path d="M333.59,82.62l5.45,3.6,10.54-7.51,18.49,12.2-2.78,12.63,5.45,3.6,11.17-50.82-5.35-3.53-.63-.42-42.34,30.24ZM354.66,75.09l20.02-14.26-5.27,24-14.74-9.73Z"/>
      <polygon points="379.05 116.22 394.66 101.32 409.32 116.67 413.17 112.99 398.51 97.64 410.06 86.61 426.24 103.65 430.4 99.68 409.95 78.27 374.83 111.81 379.05 116.22"/>
      <polygon points="415.39 164 420.19 160.96 408.76 142.9 444.99 119.96 441.69 114.75 400.66 140.72 415.39 164"/>
      <rect x="418.03" y="162.42" width="48.56" height="6.18" transform="translate(-29.2 192.15) rotate(-23.75)"/>
      <polygon points="427.77 195.52 448.66 190.07 454.02 210.61 459.17 209.27 453.81 188.73 469.27 184.69 475.13 207.45 480.7 206 473.22 177.35 426.23 189.62 427.77 195.52"/>
      <polygon points="483.41 224.91 434.89 227.04 436.26 258.18 441.93 257.93 440.83 232.89 456.72 232.19 457.72 254.82 463.04 254.59 462.04 231.96 478 231.26 479.03 256.3 484.78 256.05 483.41 224.91"/>
      <path d="M407.88,350.34l-4.14,5.05,6.39,11.25-14.03,17.14-12.28-4.06-4.14,5.05,49.41,16.32,4.14-5.05h0s.4-.49.4-.49l-25.75-45.21ZM413.21,372.07l12.14,21.37-23.33-7.7,11.19-13.67Z"/>
      <path d="M391.7,412.38c-1.98-.7-4.29-.81-6.92-.33-2.63.48-5.94,1.5-9.91,3.08-2.98,1.24-5.3,2.12-6.98,2.65-1.68.53-3.25.68-4.73.46-1.47-.22-2.74-1.03-3.79-2.43-1.48-1.96-1.75-4.16-.81-6.6.95-2.44,2.93-4.8,5.95-7.08,2.27-1.71,4.92-3.14,7.97-4.29s5.8-1.82,8.26-2.02l-1.33-5.41c-2.93.2-6.07.94-9.41,2.21-3.34,1.28-6.38,2.96-9.14,5.04-4.3,3.25-7.07,6.9-8.29,10.94-1.22,4.04-.5,7.81,2.15,11.32,2.23,2.95,5.04,4.43,8.43,4.44,3.39.02,7.86-1.15,13.38-3.49,3.05-1.3,5.44-2.21,7.15-2.73,1.71-.52,3.28-.65,4.69-.39s2.67,1.11,3.75,2.55c1.48,1.96,1.78,4.18.9,6.66-.89,2.48-2.82,4.84-5.8,7.1-3.44,2.6-7.62,4.63-12.56,6.11l1.57,5.49c5.74-1.67,10.57-3.99,14.5-6.96,2.8-2.11,4.98-4.44,6.55-7,1.57-2.55,2.36-5.14,2.37-7.75,0-2.62-.84-5.06-2.55-7.33-1.63-2.15-3.43-3.58-5.41-4.28Z"/>
      <path d="M338.24,414.22l.53,12.93-20.33,8.81-9.06-9.23-5.99,2.6,36.45,37.13.52-.23h0s6.06-2.63,6.06-2.63l-2.19-51.98-5.99,2.6ZM322.81,440.42l16.21-7.03,1,24.56-17.21-17.53Z"/>
      <polygon points="291.34 431.27 295.24 452.5 274.36 456.33 275.32 461.57 296.2 457.74 299.08 473.45 275.96 477.62 277 483.28 306.12 477.93 297.34 430.17 291.34 431.27"/>
      <polygon points="231.33 441.12 252.7 441.47 252.01 484.35 258.18 484.45 258.97 435.89 231.43 435.44 231.33 441.12"/>
      <rect x="191.09" y="454.07" width="48.56" height="6.18" transform="translate(-270.86 594.83) rotate(-80.58)"/>
      <polygon points="191.35 449.04 171.22 442.29 169.53 447.34 189.65 454.09 184.58 469.23 162.32 461.7 160.49 467.15 188.56 476.56 204 430.51 198.21 428.57 191.35 449.04"/>
      <polygon points="141.14 401.39 138.24 406.28 159.79 419.07 151.67 432.75 132.2 421.18 129.48 425.76 148.95 437.33 140.8 451.06 119.28 438.2 116.35 443.15 143.15 459.06 167.94 417.3 141.14 401.39"/>
      <path d="M72.6,338.26l-8.75-20.35,9.25-9.03-2.58-6-37.23,36.34,2.16,5.02.67,1.57,51.99-2.04-2.58-6-12.93.49ZM66.36,338.49l-24.56.93,17.58-17.16,6.98,16.23Z"/>
      <path d="M40.52,300.84c1.54-1.43,2.7-3.43,3.5-5.98.8-2.56,1.41-5.96,1.85-10.21.28-3.21.57-5.69.88-7.42.31-1.73.9-3.2,1.78-4.4.88-1.2,2.18-1.95,3.91-2.24,2.43-.41,4.5.37,6.22,2.34,1.72,1.97,2.89,4.82,3.52,8.55.47,2.8.51,5.82.11,9.05s-1.07,5.99-2.04,8.26l5.4,1.33c1.18-2.69,1.98-5.81,2.39-9.36.41-3.55.34-7.03-.23-10.43-.89-5.32-2.84-9.46-5.86-12.41-3.01-2.95-6.69-4.06-11.03-3.34-3.64.61-6.25,2.42-7.84,5.42s-2.62,7.49-3.11,13.48c-.26,3.31-.56,5.84-.89,7.6-.33,1.76-.94,3.21-1.83,4.34s-2.22,1.85-4,2.14c-2.43.41-4.53-.36-6.32-2.29-1.79-1.93-2.99-4.74-3.61-8.43-.71-4.25-.58-8.9.4-13.96l-5.59-1.15c-1.18,5.86-1.36,11.22-.55,16.07.58,3.46,1.64,6.47,3.17,9.04,1.54,2.58,3.46,4.47,5.78,5.69,2.32,1.22,4.87,1.6,7.68,1.13,2.66-.45,4.76-1.38,6.29-2.82Z"/>
      <path d="M63.19,259.03l.46-6.52-11.72-5.49,1.55-22.1,12.36-3.79.46-6.52-49.75,15.24-.46,6.52h0s-.04.64-.04.64l47.14,22.02ZM46.28,244.38l-22.26-10.43,23.49-7.2-1.23,17.62Z"/>
      <polygon points="70.11 202.98 49.47 196.68 55.67 176.37 50.58 174.82 44.38 195.12 29.1 190.45 36.04 168 30.54 166.32 21.88 194.63 68.33 208.82 70.11 202.98"/>
      <polygon points="78.83 164.06 41.12 143.64 38.18 149.07 80.89 172.2 94 147.97 89.01 145.27 78.83 164.06"/>
      <rect x="79.09" y="99.46" width="6.18" height="48.56" transform="translate(-66.1 114.9) rotate(-53)"/>
      <polygon points="112.08 87.6 96.81 102.35 85.71 90.86 102.66 74.59 98.67 70.45 77.37 91.01 111.1 125.95 115.5 121.71 100.5 106.18 115.78 91.44 112.08 87.6"/>
      <polygon points="165.94 83.52 162.93 78.7 141.66 91.96 133.25 78.46 152.47 66.48 149.66 61.96 130.44 73.94 121.99 60.38 143.29 47.19 140.25 42.31 113.8 58.79 139.49 100.01 165.94 83.52"/>
    </g>
  </g>
</svg>