<?xml version="1.0" encoding="UTF-8"?>
<svg xmlns="http://www.w3.org/2000/svg" viewBox="0 0 500 500">
  <g id="Layer_3">
    <rect width="500" height="500" fill="none"/>
  </g>
  <g id="Layer_1">
    <path d="M250,499.5c-66.64,0-129.3-25.95-176.42-73.08C26.45,379.3.5,316.64.5,250S26.45,120.7,73.58,73.58C120.7,26.45,183.36.5,250,.5s129.3,25.95,176.42,73.08c47.12,47.12,73.08,109.78,73.08,176.42s-25.95,129.3-73.08,176.42c-47.12,47.12-109.78,73.08-176.42,73.08ZM250,32.02c-120.2,0-217.98,97.79-217.98,217.98s97.79,217.98,217.98,217.98,217.98-97.79,217.98-217.98S370.2,32.02,250,32.02Z" fill="#fdce0b"/>
    <polyline points="328.82 338.02 250 250 250 93.02" fill="none" stroke="#fdce0b" stroke-miterlimit="10" stroke-width="35"/>
  </g>
</svg>