<?xml version="1.0" encoding="UTF-8"?>
<svg xmlns="http://www.w3.org/2000/svg" viewBox="0 0 500 503.6">
  <g id="Layer_3">
    <rect x="0" width="500" height="500" fill="none"/>
  </g>
  <g id="Layer_2">
    <g>
      <path d="M254.85,274.82c-75.89,0-137.64-61.53-137.64-137.16S178.96.5,254.85.5s137.64,61.53,137.64,137.16-61.74,137.16-137.64,137.16ZM254.85,30.44c-59.33,0-107.59,48.1-107.59,107.22s48.27,107.22,107.59,107.22,107.59-48.1,107.59-107.22-48.27-107.22-107.59-107.22Z" fill="#fdce0b"/>
      <path d="M455.81,499.5H44.19c-12.1,0-23.78-5.06-32.03-13.88-8.18-8.74-12.39-20.57-11.56-32.46,4.18-59.36,32.96-113,75.11-139.98,28.5-18.24,64.77-22.07,97.07-10.26l19.75,6.67c37.06,12.51,77.88,12.51,114.94,0l19.74-6.67c32.29-11.81,68.57-7.98,97.07,10.26h0c42.15,26.98,70.93,80.62,75.11,139.98.84,11.88-3.38,23.71-11.56,32.46-8.25,8.82-19.93,13.88-32.03,13.88ZM134.52,326.09c-15.03,0-29.87,4.16-42.57,12.29-33.81,21.64-57.9,67.52-61.38,116.88-.26,3.68,1.01,7.21,3.56,9.94,2.63,2.81,6.2,4.36,10.05,4.36h411.62c3.85,0,7.43-1.55,10.05-4.36,2.56-2.73,3.82-6.26,3.56-9.94-3.47-49.36-27.57-95.24-61.38-116.88-20.67-13.23-47.07-15.96-70.62-7.3l-.38.13-19.93,6.73c-43.28,14.61-90.95,14.61-134.23,0l-20.31-6.86c-9.09-3.34-18.61-4.99-28.06-4.99Z" fill="#fdce0b"/>
    </g>
  </g>
</svg>