<?xml version="1.0" encoding="UTF-8"?>
<svg xmlns="http://www.w3.org/2000/svg" version="1.1" viewBox="0 0 500 500">
  <!-- Generator: Adobe Illustrator 28.6.0, SVG Export Plug-In . SVG Version: 1.2.0 Build 709)  -->
  <g>
    <g id="Layer_3">
      <rect width="500" height="500" fill="none"/>
    </g>
    <g id="Layer_1">
      <g display="none">
        <path d="M250,499.5c-66.6,0-129.3-26-176.4-73.1C26.5,379.3.5,316.6.5,250S26.5,120.7,73.6,73.6C120.7,26.5,183.4.5,250,.5s129.3,26,176.4,73.1c47.1,47.1,73.1,109.8,73.1,176.4s-26,129.3-73.1,176.4c-47.1,47.1-109.8,73.1-176.4,73.1ZM250,32c-120.2,0-218,97.8-218,218s97.8,218,218,218,218-97.8,218-218S370.2,32,250,32Z" fill="#231f20"/>
        <polyline points="328.8 338 250 250 250 93" fill="none" stroke="#231f20" stroke-miterlimit="10" stroke-width="35"/>
      </g>
      <g display="none">
        <path d="M254.9,274.8c-75.9,0-137.6-61.5-137.6-137.2S179,.5,254.9.5s137.6,61.5,137.6,137.2-61.7,137.2-137.6,137.2ZM254.9,30.4c-59.3,0-107.6,48.1-107.6,107.2s48.3,107.2,107.6,107.2,107.6-48.1,107.6-107.2-48.3-107.2-107.6-107.2Z" fill="#231f20"/>
        <path d="M455.8,499.5H44.2c-12.1,0-23.8-5.1-32-13.9-8.2-8.7-12.4-20.6-11.6-32.5,4.2-59.4,33-113,75.1-140,28.5-18.2,64.8-22.1,97.1-10.3l19.7,6.7c37.1,12.5,77.9,12.5,114.9,0l19.7-6.7c32.3-11.8,68.6-8,97.1,10.3h0c42.2,27,70.9,80.6,75.1,140,.8,11.9-3.4,23.7-11.6,32.5-8.3,8.8-19.9,13.9-32,13.9ZM134.5,326.1c-15,0-29.9,4.2-42.6,12.3-33.8,21.6-57.9,67.5-61.4,116.9-.3,3.7,1,7.2,3.6,9.9,2.6,2.8,6.2,4.4,10.1,4.4h411.6c3.9,0,7.4-1.5,10.1-4.4,2.6-2.7,3.8-6.3,3.6-9.9-3.5-49.4-27.6-95.2-61.4-116.9-20.7-13.2-47.1-16-70.6-7.3h-.4c0,.1-19.9,6.9-19.9,6.9-43.3,14.6-90.9,14.6-134.2,0l-20.3-6.9c-9.1-3.3-18.6-5-28.1-5Z" fill="#231f20"/>
      </g>
      <g id="_x30_5-" display="none">
        <circle cx="250" cy="250" r="245" fill="#58595b"/>
      </g>
      <g id="_x30_5--2" data-name="_x30_5-" display="none">
        <path d="M18.5,126.9c22.1-52.5,72.5-93.9,129.4-92.8,177.6,3.4,85.9,151.6,227.1,190.5,127.2,35,151.8,140.8,84.7,211.8-60,63.5-247.1,14.1-345.9-53C40.8,333.9-26.4,233.5,18.5,126.9Z" fill="#414042"/>
      </g>
      <g>
        <g id="_x30_5--3" data-name="_x30_5-">
          <circle cx="196.5" cy="126.3" r="45.4" fill="#fdce0b"/>
        </g>
        <g id="_x30_5--4" data-name="_x30_5-">
          <path d="M.6,211.3c1.1-30.7,18.6-61.2,47.5-71.6,90.3-32.3,72.4,60,151,52.6,70.8-6.7,103.5,42,83.3,90.6-18.1,43.5-121.9,54.5-184.6,39.6C51.5,311.4-1.7,273.7.6,211.3Z" fill="#55c7e0"/>
        </g>
        <g>
          <g id="_x30_5--5" data-name="_x30_5-">
            <circle cx="125.4" cy="241.7" r="19" fill="#dad9da"/>
          </g>
          <g id="_x30_5--6" data-name="_x30_5-">
            <circle cx="196.5" cy="241.7" r="19" fill="#dad9da"/>
          </g>
          <g id="_x30_5--7" data-name="_x30_5-">
            <circle cx="267.5" cy="241.7" r="19" fill="#dad9da"/>
          </g>
          <g id="_x30_5--8" data-name="_x30_5-">
            <circle cx="338.5" cy="241.7" r="19" fill="#dad9da"/>
          </g>
          <g id="_x30_5--9" data-name="_x30_5-">
            <circle cx="409.5" cy="241.7" r="19" fill="#dad9da"/>
          </g>
          <g id="_x30_5--10" data-name="_x30_5-">
            <circle cx="480.5" cy="241.7" r="19" fill="#dad9da"/>
          </g>
        </g>
        <g>
          <g id="_x30_5--11" data-name="_x30_5-">
            <circle cx="125.4" cy="320.9" r="19" fill="#dad9da"/>
          </g>
          <g id="_x30_5--12" data-name="_x30_5-">
            <circle cx="196.5" cy="320.9" r="19" fill="#dad9da"/>
          </g>
          <g id="_x30_5--13" data-name="_x30_5-">
            <circle cx="267.5" cy="320.9" r="19" fill="#dad9da"/>
          </g>
          <g id="_x30_5--14" data-name="_x30_5-">
            <circle cx="338.5" cy="320.9" r="19" fill="#dad9da"/>
          </g>
          <g id="_x30_5--15" data-name="_x30_5-">
            <circle cx="409.5" cy="320.9" r="19" fill="#dad9da"/>
          </g>
          <g id="_x30_5--16" data-name="_x30_5-">
            <circle cx="480.5" cy="320.9" r="19" fill="#dad9da"/>
          </g>
        </g>
        <g>
          <g id="_x30_5--17" data-name="_x30_5-">
            <circle cx="125.4" cy="400.2" r="19" fill="#dad9da"/>
          </g>
          <g id="_x30_5--18" data-name="_x30_5-">
            <circle cx="196.5" cy="400.2" r="19" fill="#dad9da"/>
          </g>
          <g id="_x30_5--19" data-name="_x30_5-">
            <circle cx="267.5" cy="400.2" r="19" fill="#dad9da"/>
          </g>
          <g id="_x30_5--20" data-name="_x30_5-">
            <circle cx="338.5" cy="400.2" r="19" fill="#dad9da"/>
          </g>
          <g id="_x30_5--21" data-name="_x30_5-">
            <circle cx="409.5" cy="400.2" r="19" fill="#dad9da"/>
          </g>
          <g id="_x30_5--22" data-name="_x30_5-">
            <circle cx="480.5" cy="400.2" r="19" fill="#dad9da"/>
          </g>
        </g>
      </g>
    </g>
    <g id="icon_Social_Media" display="none">
      <g>
        <path d="M372,228.3c-34.4,15.4-69,91.7-119.6,75.2-4.2,3-13.8,15.1-14.4,24.4-17.5-2.3-37.7-22.4-35.2-44-29.1-21.1-5.1-60,18-75.6,49.5-33.5,118.2-4.7,80,19.3-23.2,14.6-72.9,24.2-67.8-11.6-13.6,3.9-22.4,29.4-5.9,42.6-15.2,14.9-12.3,42.4,4,51.4,16.4-42.6,73.7-37,96.8-87.9,17.4-38.2-8.4-81.8-59.9-75.1-38.9,5.1-75.4,37.9-93.6,76.8-18.5,39.5-15.8,92.4,22.2,119,44.7,31.4,92.3,2.3,121.2-35.6,17-22.4,31.8-47.2,54.4-61.5v-17.4Z" fill="#fff"/>
        <path d="M317.6,307.1c-28.8,38-76.4,67-121.2,35.6-38-26.7-40.8-79.5-22.2-119,18.2-38.9,54.7-71.7,93.6-76.8,51.6-6.7,77.3,36.9,59.9,75.1-23.1,50.8-80.3,45.3-96.8,87.9-16.3-9-19.2-36.5-4-51.4-16.4-13.2-7.7-38.7,5.9-42.6-5.2,35.8,44.5,26.2,67.8,11.6,38.2-24-30.5-52.8-80-19.3-23.1,15.7-47.1,54.5-18,75.6-2.4,21.6,17.8,41.7,35.2,44,.7-9.2,10.3-21.4,14.4-24.4,50.5,16.6,85.2-59.7,119.6-75.2v-33.6c0-38.3-31.4-69.6-69.7-69.6h-104.5c-38.3,0-69.7,31.4-69.7,69.7v110.6c0,38.3,31.4,69.7,69.7,69.7h104.5c38.3,0,69.7-31.4,69.7-69.7v-59.6c-22.5,14.3-37.4,39.1-54.4,61.5Z" fill="#ee7f22"/>
      </g>
    </g>
  </g>
</svg>