<?xml version="1.0" encoding="UTF-8"?>
<svg xmlns="http://www.w3.org/2000/svg" version="1.1" viewBox="0 0 1920 500">
  <!-- Generator: Adobe Illustrator 28.6.0, SVG Export Plug-In . SVG Version: 1.2.0 Build 709)  -->
  <g>
    <g id="Layer_1">
      <path d="M263.4,88.6c3.4,0,3.8,1.2,6.7,0,2.9-1.2,11.5-6.9,14.4-7.6,2.9-.8,4.8.3.5,2.6-4.3,2.4-12.8,7.5-11.3,7.1,1.5-.4,5.9-2.2,12-5.1,6.1-2.9,5.6-1.6,7.2-4.7,1.6-3.1,2.4-4.7,2.4-4.7,0,0,9.7,10,10.6,10.3.9.4,1.2,0,1.7-1.3.5-1.2,1.5-3,2.9-2.4,1.4.6.2,3,1,3.3.8.3,2.2,0,4.8-.9,2.6-.8,1.2-2.7,1.2-2.7,0,0-.3,0,2.7-.3,3-.3,12.3,3.1,15,4.2,2.8,1.1,11.1,2,13.5,2.8,2.3.8,3.2-1.3,6.5.4,3.2,1.7,5.7,4,3.2,5.3-2.4,1.2-8.5,2.1-5.4,2.9,3.1.8,7.8,1.7,12.3,1.6,4.5-.1,12.5-1.8,15-1.8s4,1.5,6.4,5.5c2.3,3.9,4.2,5.5,5.1,5.8.9.3-.9-1.9-.4-3.8.5-1.9-.5-5.7-1-7-.5-1.3,0-1.9-1.1-3.8-1.1-1.9-2.9-1.5.4-3.1,3.3-1.6,5.6-4,9.6-3.5,4,.5,5.1,5.6,8.6,6,3.5.4,4.1,1.7,10,2.2,5.9.4,3.5,0,10.1.5,6.6.4,4.2-.7,5.6-4.1,1.4-3.4,2.9-4.1,4.5-3.9,1.6.1,7.2.9,7.2,1.6s-2.3,4.4-1.2,6.2c1.2,1.8,5.9,4.8,5.9,4.8,0,0-1-4.1-1-4.6s-.3-3.7.3-4.2c.7-.6,4.6.3,7.1-4.5,2.5-4.8-1.7-4.6-1.7-4.6,0,0-1.5,0-.8-1.9.8-2,5.2-3.2,5.2-3.2,0,0,.3.9-.3-.7-.5-1.6-3.4-1.3-6.6-1.5-3.1-.2-5.2-.6-5.8-3.3-.6-2.6-.8-8.2-.8-11.9s3-2.4,3.6-4.6c.6-2.1-.1-12.5-.9-14.6-.8-2.1,1.1-6.7,1.5-9.7.4-3,3.5-1.7,3.5-1.7-.6-1,.9-3.9,5-5.1,4.1-1.2,12,0,12,0,0,0-.7,0-2.6,2.6-1.9,2.5-.7,6.9-3.6,10.1-2.9,3.1-10.3,2.1-10.3,2.1,0,0,2.3,5.2,1.3,6.9-1,1.7-1.6,5.1-1.6,5.1,0,0,6.5,1.8,6.8,5.9.3,4.1,3.6,4.8,4.3,8.6.8,3.8-3.2,6.9-2.3,7.5.8.6,1.1.8,3.5,1,2.3.1,5.5.6,5.5.6,0,0-1.3,1.9-.1,4,1.2,2.1.3,3.3.4,5.5.1,2.2,1.4,4,2,3.7.6-.4,3.1-6,3.7-8.5.5-2.5,1-3.9,2.1-3.9s4.8,3.4,5.2,4.6c.4,1.2.7,2.9-1.4,6.2-2.1,3.3-1.9,4.9,0,6.2,1.8,1.3,1.9.9,5.1,2.4,3.2,1.5,2.6,1.4,4.6.8,2-.6-.8-5.7-.6-5.8.2-.1,4.8-.6,3.7-3.2-1-2.6-2.1-3.9,0-5.1,2.1-1.3,3.7-2.3,3.7-2.3-.9-1.6-1.2-1.7-2.7-6-1.5-4.3,1.3-3.1,7.2-2.7,5.9.5,6.2,2.5,9.4,4.1,3.2,1.6,1.2,2.2,2.2,4.8,1,2.6-2.6,3-2.6,3,0,0-2.4.4-1.9,2.4.6,2,1.7,4.4,3.4,7.5,1.7,3.1-.5,5.2-3.2,7.7-2.7,2.5-5.9,3.2-9,3.3-3.2,0-4.6,1.3-4.8.4-.2-.9-1.7-1.7-3.5-1.3-1.7.4-5.7,1.9-4.3,2.4,1.4.5,5,.4,3.5,3.2-1.5,2.8-2.8,2.8-5.9,2.5-3-.3-5.9-.3-7.8-.5-1.9-.1-11.5-.7-11.5-.7,0,0,6.4,3.9,11.5,5.5,5.1,1.6,10.5.6,10.5.6,0,0-2.1,3.9-4.6,8-2.5,4.1-4.8,2.3-6.9,2.6-2.1.3-3.3,1.9-7.2,2.4-3.9.5-11.9-1.1-10.7-.5,1.2.6,1.8,1.6,4,1.9,2.2.3,3.6.7,5.5,2.3,1.9,1.6-1.2,2-3.8,2.4-2.6.5-3.2.9-4.4,2.5-1.2,1.6-5.5,7.8-6.9,9.8-1.4,1.9-2.6,5.1-3.2,8.9-.6,3.8-3.8,8.4-2.3,9.3,1.4,1,6.9,1.1,9.2,2.5,2.3,1.4,4.8,8.4,6.6,11,1.7,2.6,3.1,4.6,5,2.6,1.9-2.1,5.7-1.5,9.3-.3,3.6,1.3,10.9,6.4,13.2,8.6,2.3,2.3,6.3,1.9,10.8,2.5,4.5.6,5,2.3,5,2.3,0,0,4.7.2,2.7,2.2-1.9,2-2.5,0-.6,3.4,1.9,3.3,1.9,7.8,1.3,10.1-.6,2.3,6.2,1.1,9,2.8,2.8,1.7,3,8.5,4.4,7.6,1.4-.8,3.9-2.3,4.1-4.1.3-1.8,0-4.2-.3-7.3-.3-3.1-1-8.7-2.6-11-1.5-2.3,2.7-3.1,2-4.1-.7-1-.5-2.9,2.4-3.7,2.9-.8,3.1,0,4.7-1.3,1.6-1.2,1.9-6.9,2.1-9,.3-2.1-.5-6.5-1.2-8.2-.7-1.7-3.5-7-4.5-8.2-1-1.2-2.3-1.5.5-5.1,2.8-3.6,1.2-2.8.8-3.9-.4-1.1-1-3.8-1.6-6.2-.6-2.4,1.2-5.1.1-8.6-1-3.5-2.1-2.7-1.9-3.5.2-.8,6.8-.6,11.6,0,4.8.5,6.8-.5,8.1-.5s3.9,1.4,6.6,3.1c2.7,1.7,3.7,1.3,5.1,3.4,1.4,2.1,2.1,3.3,5,3.1,2.8-.1,5.9,1.2,5.9,1.2,0,0-2,1.2-1.7,4.9.3,3.8-.4,6.5-.4,8.1,0,1.5.8,1.6,2.1,1.8,1.3.2,4.8,3.3,8.5,4.6,3.7,1.3,4.6.9,5.8-2.1,1.2-3,1.5-2.7,2.9-2.9,1.4-.2,1.9.3,2.5-.3.6-.6-1.1-1.9-.7-4,.4-2.1,2.4-4.8,4.1-6.3,1.6-1.5,2.8,1.5,4.3,4.4,1.4,2.8,6.5,12,7.9,15,1.4,3,3.3,3.2,1.6,6-1.7,2.8-2.6,4,.1,5.3,2.7,1.3,5.1,3.5,4.9,5.7-.2,2.1-.8,2.2.1,2.8.9.6,4.1-1.2,6.5-.1,2.3,1,5.2,2,6.8,3.7,1.7,1.7,1.5,2.2-.8,3.1-2.3.8-4.7,1.7-5.9,2.4-1.2.7-3,2.1-3,3.2,0,1.1-.5,2.9,1.4,1.5,1.9-1.4,4.9-2.8,7.1-3.5,2.2-.6.6,0,2.6-.3,2-.3,3.9,1,6.7,1.7,2.7.8,2,2.5,1.3,4.1-.7,1.6-1.3,3.1-.2,4.9,1.1,1.8-.5,3.4-2.9,5.6-2.4,2.2-4.2,2.5-8.1,3s-5.8,2.9-8.6,5.5c-2.8,2.6-4.1,1.9-8.1,2.1-4,.2-2.4-2-3.7-1.5-1.2.5-2.8,1.8-5.4,2.1-2.6.3-11.2.4-14.5,1.3-3.3,1-2.3,3.2-3.1,5.1-.8,1.9-2.1,1.1-4.6,1.9-2.5.8-5.5,4.5-8.3,9.5-2.9,5-6.8,8.1-6.8,8.1.8-.2,4.9-2.7,6.9-5.1,2-2.4,10.3-8.2,12.9-10,2.5-1.8,8.1-4.4,9.4-4.1,1.3.4,4.6,2.9,4.6,4.2s-1,2.3-3.3,4.5c-2.3,2.2-5.5,0-5.2.9.2.9,1.9,3,3.7,3.4,1.8.4,1.7,2.6,1.7,3.7s-1,2.5,3.1,6c4.1,3.5,7,3.7,10.1,3.5,3-.2,1.4,1,2.7.9,1.2-.1,1.5-2.5,1.9-4.4.4-1.9,1.1-3.7,2.2-4.6,1.1-.8,1.9-2.4,2.3.6.3,2.9-1.2,7-2.8,7.9-1.6.9-1.2,2.1-1.2,3s-1.8,1-6.1,3.3c-4.3,2.4-5.7,3-6.4,2.6-.8-.3-2.3.4-4.4,2.3-2.1,1.9-4.3,4.4-5.8,4.3-1.5,0-2.8-.7-.8-2.8,2.1-2.1,2.8-5.1,4.8-6.1,2.1-1,3-.9,4.8-.9s.9-1,2.3-2.1c1.4-1-1-.7-3.4-1.1-2.3-.4-.5-2.4-.5-2.4l-2.4,1.3s-3.7,1.9-4.6,2.1c-1,.1-.8.8-1,1.2-.3.4-3.7.6-3.7.6,0,0-1.8,3.7-4.5,4.2-2.7.5-.8.3-2.8,1.2-1.9.8-1.6-1-2-.4-.4.5-.8,1-2.9,2.6-2.1,1.6-3.4,2.1-4.9,8-1.5,5.8.3,8,.2,8.9,0,.9-2.7-.6-3.4.1-.8.7-2.5,2.9-4.8,3.5-2.3.6-6.8,1.8-7.8,2.9-1,1.1-1.1,2.6-1.6,4.9-.5,2.3-3.2,7.5-3.2,7.5,0,0,.6-2.1-1.2-3.7-1.9-1.5-1.6-3-1.6-3,0,0-.4,2.1.3,4.3.7,2.2,2.1,4.4,1.4,6.7-.6,2.4-1.8,5.3-3.2,6.2-1.5.8.3-1.6.3-3.5s-1-2.1-1.6-3c-.6-1-.6-3.4.5-6.7,1.1-3.3-1-1.3-2.3.9-1.2,2.2-2.1,6.2-.2,8.9,1.9,2.6-1.2,2.4,0,6.2,1.3,3.8-1.6,5.7-1,6.2.6.6,2.1-.3,2.8,1.6.7,1.9-1.4,1-2.1,1.5-.7.5-.4,1.2,0,2.3.4,1,1.2.4.9.7-.3.3-1.3,1.6-3.1,2.2-1.8.6-1.9-.3-3,1-1.1,1.3-1.9,2.4-3.1,3.9-1.2,1.5-2,1-3.2,2-1.2,1-1.7,1.9-3.3,3.1-1.5,1.3-5,3.3-6.8,5.8-1.9,2.5-1.4,3.1-2.3,7.2-.9,4,2.3,11.1,4.3,17.8,2,6.7,2.8,4.8,2.5,6.9-.3,2.1-1.2,4.7-2.6,6.2-1.4,1.5-2.3-1-4.3-2.5-2-1.5-.4-2.5-2.3-5.6-1.9-3.1-1.8-4.2-2-6.4-.2-2.2-.6-5.5-1.6-7.9-1-2.5-3.3-5.5-6.6-4.3-3.3,1.2-2.5.6-4.3.1-1.8-.5-6.6-2.4-9-1.2-2.4,1.3-10.1-.4-11.7,0-1.6.4-2.8.5-2.8,1.6s-.7,1.3,2.1,2c2.8.8,2.4,1.6,2.2,2.8-.2,1.2-2.3-.6-3.4-1.1-1.1-.4-2.1.9-4.1.9s-2.3-1.9-4-2.1c-1.7-.3-2.4,0-4.1-.6-1.7-.6-3.9-1.7-5.8-1.6-1.9.1-9.4,5.1-12.9,7.7-3.5,2.6-6.2,5.2-7,7.3-.8,2.1-.9,2.3,1.9,5.5,2.8,3.1,1.5,2.6,1,4.4-.6,1.8-2.2,4-4.2,8.6-2,4.6-.8,6.9,1.6,11.3,2.4,4.4,4.6,7.6,6.5,9.5,1.9,1.9,3.3,3.9,5,4.6,1.7.7,2,1,2.8,1.7.8.8.6,1.1,3.2.4,2.6-.7,4.5-1.7,6.4-1.7s3.6,0,4.6,1c1,1,1.2.4,1.2-.1s.8-2.4,1.1-3c.3-.5,2.8-4,3.2-6,.4-1.9.4-5.8,2.8-6,2.4-.3,7.6-1.5,12.3-1.2,4.7.3,2.6,2.6,1.4,5.1-1.3,2.4-1.7,2.7-1.7,4.6s.6,1.9-1,3c-1.5,1.1-.6-.6-1.2.4-.6,1.1-2.8,2.6-2.6,2.4.3-.3,1,1.9,1,2.9s-.2,1.5-.2,4.1-4.9,5.1-4.9,5.1c0,0,1.8,1,4.4,1s5.8,0,8.6,1.3c2.8,1.3,8-1,11.9.9,3.9,1.9,2.5,3.1,2.8,4.9.3,1.8.7,8,.4,9.4-.3,1.4-2.1,5.4-3,8.2-1,2.8,2.8,4.9,6.2,7.2,3.4,2.3,6.5,3.3,8.3,3.9,1.8.5,5.1-2.7,11.2-2.3,6.1.4,8.1,5.5,8.1,5.5,0,0,.7-3.2,3.5-7.6,2.8-4.4,2.9-5.7,6.6-7.1,3.7-1.4,5-1.7,11-3.6,6.1-1.9,5-.5,8.1-.3,3.2.3,10.5.9,17.8,3.1,7.3,2.2,18.5,2.8,22.8,4.6,4.3,1.8,6.2,6.8,10.6,10.9,4.4,4.1,9.9,7.8,12.3,9.8,2.3,1.9,15.5,3.7,18.4,4.9,2.9,1.2,6.9,5.9,7.2,8.7.3,2.8,3.2,4.2,7.2,5.9,4,1.7,5.2,3.6,7.9,8.7,2.6,5.1,1.8,6.6,5.4,7.8,3.6,1.3,28.4,8,34.6,10.4,6.2,2.4,14.1,9,16.1,9.8,2.1.8,5.8-.6,7.5.3,1.7.9-1,5.8,1.1,9.2,2.1,3.5,2.2,3.7,1,6.3-1.2,2.6-6.2,8.7-8.1,11.8-1.9,3.1-6.1,5-8.4,6.3-2.3,1.3-4.4,0-2.3,2.6,2.1,2.6.1,4.7-1.7,7.1-1.8,2.3.1,2-.4,9.5-.6,7.4,0,15.5-.8,18.8-.8,3.2-5.6-2.8-11.2,4.1-5.5,6.9-7,12.2-10.3,13-3.3.8-11,4.6-13.7,7.1-2.6,2.4-3.2,3.3-4.8,6.9-1.7,3.6-3.3,10.9-5.1,15.4-1.8,4.5-4.7,7.1-11.3,13.1-6.6,6-9.5,12.2-13.8,17-4.3,4.7-3.2,3.7-4.1,4.6-2.3,2.3-11.7-3.7-9.3-.4,1.8,2.4-1,0,.5,2.3,1.5,2.3,2.6,3.2-.7,7.3-3.3,4.1-7.1,3.3-9.8,3.9-2.6.6-6.5-2.7-6.8-1-.3,1.7-1.8,5.8-3.9,6.8-2.1,1-7.6,2.6-7.4,3.2,2.6,12.2,8,13.4,2.3,12.9-15.6-1.5-4.5-5.2-15.3,17.4-1.6,3.5-3.3,1.7-3,5.8.3,4.1,0,7.2,2.2,9.8,2.2,2.6.7,2.4-3,5.9-3.7,3.5-4,3-7.4,8.2-3.5,5.3-6.8,5-5.5,9,1.2,4,1.5,9.9,3.6,15.8,2.1,5.9,6.3,4.9,13.1,9,6.8,4.1,7.6,1.9,10.9,3,3.3,1-2.3,1.3-8.3,2.3-5.9,1-9.8,2.2-13.9,1.3-4.1-.9-13.9-6.6-17.2-9-3.3-2.4-8.7-6.8-10.6-11-1.9-4.2-3.3-8.5-5.8-14.3-2.5-5.8-.7-9.4.4-22.1,1.1-12.7,1.9-22.6,3.7-29.4,1.8-6.8,7.3-37.1,8.8-45,1.5-7.8,8.6-39.7,9.1-44.7.5-5,1-8.9,2.1-13.9,1.1-5,.4-15.2.4-15.7s-.4-.9-1.9-5.7c-1.5-4.8-4-6.7-7.4-8.7-3.4-2.1-7-4.6-9.8-6.6-2.8-1.9-6.1-4.6-8.8-8.1-2.8-3.5-5.4-10.5-6.8-13.5-1.4-2.9-6.5-13-11.2-19.9-4.7-6.9-5-7.1-7.3-14.4-2.3-7.3,2.1-7.4,2.9-11.6.8-4.1,3.6-8.2,6.6-14,3-5.8,7-7.5,9.4-12.6,2.3-5.1.6-5.1-.3-10.2-.8-5,.3-4.2-1.2-6.9-1.5-2.7-2.3-6-3.7-6.9-1.4-.9-3.4-1.5-4.7-.1-1.2,1.4-3.5,5.5-4.8,5.8-1.4.3-1.9-1.3-2.8-2.2-.8-.9-4.8-.9-5.7-1.8-.8-.9-2.9-1-4.3-1.7-1.4-.6-6.8-3.5-8.3-4.8-1.5-1.3-3.4-4.4-3.4-7.7s-2.9-4.6-9.4-9.2c-6.5-4.6-9.3-5.3-17.1-7.2-7.9-1.9-11-7.4-13.7-9-2.6-1.5-2.3-3.2-8.1-2.6-5.8.6-12.8-2.6-17.3-4.4-4.4-1.8-12.3-3.1-15.6-5.3-3.3-2.2-9.1-3-11.6-8.2-2.5-5.3-2.1-3.2-1.1-7.8,1-4.6-5.7-8.5-9.7-12.8-4-4.4-7-5-9.1-10.4-2.1-5.4-5.1-5.1-9.1-9-4-3.9-4.1-8.7-5.8-13.1-1.6-4.4-12.7-10.7-12.7-10.7,0,0,2.9,7.3,4.1,10.3,1.2,3,4.1,10,7.5,15.3,3.3,5.3,6.2,6.6,9.2,11.8,3,5.3.1,8.5-1,6.4-1.1-2.1-5.5-3-5.5-5.4s-1.1-4-2.1-5.9c-1-1.9-5.2-4.1-9.4-7.5-4.1-3.3-7-4.9-4.4-4.9s6.3,2.4,5.7.9c-.7-1.5-5.4-6.3-7.6-9.6-2.2-3.3-2.9-7.1-5.1-12.7-2.2-5.7-10.3-11.1-14.4-11.4-4-.4-5.1-2.3-6.5-6.4-1.4-4.1-1.7-8.5-3.5-11.7-1.8-3.2-9.5-14-9.7-18.1-.1-4.1-2.3-16.1.4-22.7,2.8-6.7,2.1-21.6,1.7-24.5-.4-2.9-5.4-8.6-5.4-10.8s2.9-.9,5.1-.3c2.2.6,6.9,2.6,6.9,2.6,0,0-3.6-6.7-5.8-9-2.2-2.3-8.7-5.3-11.6-5.9-2.9-.6-6.6-1.7-8.1-4.1-1.5-2.4-3.2-5.7-4.3-7.7-1.1-2.1-5.8-4.5-6.9-6.7-1.1-2.2-.8-6.4-2.3-8.6-1.5-2.2-3.7-3.5-6.2-2.6-2.5.9-3.3-1.3-5.2-4.5-1.9-3.2-6.2-4.7-7.5-5.1-1.2-.4-5.5-6-5.8-7.5-.3-1.4-7-8.9-9.2-10.4-2.2-1.5-23.6-8.5-24.1-8.5s-6.8.9-8.4.4c-1.7-.5-7.3-5.4-10.2-6.4-2.9-1-5,1.2-6.4,4.4-1.4,3.2-8.1,8.7-11.9,11.2-3.7,2.5-6.8,2.7-6.5,1.4.3-1.3.1-3.3,1.4-6.4,1.2-3.1,1.9-4,5.8-5.9,3.9-1.9,3.7-2.1,2.2-1.9-1.5.1-2.6-.3.4-2,3-1.8,4.3-2.1,4.1-3.6-.1-1.5-6.6,2.1-10.8,5.4-4.1,3.3-6.6,5.7-10.2,11.6-3.6,5.9.4,3.7-2.6,7.6-3,3.9-13.4,11.7-16.4,14.6-3,3-15.6,9.5-20.7,11.1-5.1,1.5-7.2,2.2-9.7,4.2-2.5,2-8.7,2.7-6.6,1.3,2.1-1.4,5.9-4.6,8.6-6.2,2.6-1.5,9.7-4.4,11.7-5.1,2.1-.8,7.9-4.4,10.8-7.6,2.9-3.2,4.8-6.9,6.8-10,1.9-3.1,2.3-4.5-1.6-3.2-4,1.3-8.1.8-10.2,0-2.1-.8-7.5,2.4-9.4,1-1.9-1.4.1-4.4-1.1-5.8-1.2-1.4-5.5-.5-8.3-1-2.8-.5-6.6-2.7-6.6-6.6s-2.8-7.2-1.2-10.1c1.5-3,3.7-3.7,6.2-5.4,2.5-1.7,9.4-3.9,10.8-3.9s3.3-1.4,4.6-2.7c1.2-1.3-2.9-5.9-2.9-5.9,0,0,.7-.5,2.3-1.5,1.7-1,.4-3.2-2.5-2.8-2.9.4-9.1,3.3-13,4.4-3.9,1-9.1.4-9-1.3.1-1.7,1-2.7-.4-4-1.4-1.3-2.5-2.7-1.1-3.3,1.4-.6,9.9-5.4,9.9-5.4,0,0,3,3.3,6.3,3.7,3.3.4,10.3-5.8,10.3-5.8-4.4-2.7-3.4-3.5-3.4-3.5,0,0-7.2-.1-8.8-1.2-1.6-1-2.2-3.1-2.6-4.9-.4-1.8-7.4-3.2-5.5-6.2,1.9-2.9,5.5-4,7.9-6.9,2.3-3,4.4-8.5,11.2-11.6,6.8-3.1,14.9-5.9,18.5-8.5,3.6-2.6,5.2-.1,6.6.3,1.4.4,9.9-.4,13.2-.4s3.9,3.7,5,4.6c1.1.9,30.2,1.8,30.2,1.8,0,0,24.7.4,29.7,1.8,5,1.4,13.9,5.1,13.9,5.1,5.5-.7,5-7.3,8.3-7.3ZM595.1-60.5s-2.5,10.3-12.4,13.1c-9.9,2.8-28.2,10.8-29,11.3-.8.5,1.1,6.2,3.6,9,2.5,2.8,4.8,4.8,7,7.6,2.2,2.8,6.1,2.6,9.1,5.5,3,3,5.2,1.9,13.5,2.1,8.3.1,6.1.8,15.3,1.3,9.2.5,18.9,1.3,22.1,4.1,3.2,2.8,7.7,13.9,10.6,20.6,2.9,6.7,8,17.7,8,18.8s-3.2,9.1-3.2,10.4,1.7,3.5,3.2,5.3c1.5,1.8.7,3.2.4,4.9-.3,1.7,1.7,5.9,1.9,6.4.3.5,4.4-4.1,7-4.9,2.6-.8,9.1,4.6,9.1,8.4,0,8.4,2.3,5.6-11.5,15.5-1.8,1.3-3.6,11.4-2.2,16.3,1.4,4.9,4.7,10.7,7.3,17.6,2.6,6.9,10.3,16.7,12.8,21.2,2.5,4.5,3.2,10.7,8.7,12.1,5.5,1.4,10.8,3.3,14.8,4.2,4,.9,6.6,2.2,8.6-1.5,1.9-3.7,5.8-17.9,9-28.1,3.2-10.3-.3-13.4,7.2-15.7,7.4-2.3,19.3-6.9,22.5-8.4,3.2-1.4,2.6-11.6,9.7-14.9,7-3.3,8-3.1,14.9-5.3,6.9-2.2,16.6-6.6,23.5-11.4,6.9-4.9,8.8-2.3,11.3-6.8,2.5-4.5-2.5-11.1-3-17.7-.6-6.7,2.2-7.1,3.6-13.1,1.4-6,2.1-10,7.5-14.1,5.4-4.1,8.3-6.4,7.3-10.3-1-3.9-3.7-9.6-3.7-13.9s1-1.8-1.2-7.7c-2.2-5.9-2.2-6.7-.1-12.2,2.1-5.5,7.6-4.1,7.2-6.6-.4-2.4-8.8-6.2-9-13-.1-6.8,1.5-8.9,2.9-10.5,1.4-1.7,15.5-12.8,16.4-13.9,1-1-.3-3.9,6.6-7.2,6.9-3.3,9.2-5.5,11.9-6.6,2.6-1,6.8-.9-1.2-3.2-8-2.3-9.8-3.3-15-2.7-5.2.6-7,3.6-16.4,4.5-9.4.9-20,5.3-20,5.3,0,0,3.2-2.8.4-5.5-2.8-2.7,7.2-11.6,8.8-12.6,1.6-1-13-4.6-20.6-6-7.6-1.4-22.5-5.9-31-5.3-8.6.6-21.1.5-25.4,1.9-4.3,1.4-3.7,6.9-8.6,7.2-4.8.3-13.8-2.8-20.7-1.8-6.9,1-17.9,5.8-19.2,6-1.2.3,4.3,3.6,7.9,4.4,3.6.8,8.3,8.2,8.3,8.2,0,0-9.6-3.2-19.5-5.9-9.8-2.7-21.3,0-25.3,1.2-4,1.2-9.2,3.3-17.2,3.7-8,.4-17.1,6.9-21.7,10-4.6,3.1-18.8,11.3-22.4,13.2-3.6,1.9-2.2,2.8,1.7,3.9,3.9,1,8,1.7,8,1.7ZM390.6,45.8c1.1,4.7,1.1,11.5-1.5,8.6-2.6-2.9-4.7-8.8-8.8-6.4-4.1,2.4-8.6,1.7-7.9,1.2.7-.5,0-3.1-2.2-3.9-2.1-.8-3.4.4-5.6,1.7-2.2,1.3-9.2,3-6.4.8,2.9-2.2,1.9-3.4.9-6-1-2.6-8.3,1.8-12.1,4.5-3.9,2.7-6.2,6.9-8.5,9.8-2.3,2.8-.6,4.6,2.9,5.7,3.5,1,9.1,1.7,4.4,3.4-4.7,1.7-8.3,2.9-5.9,4.4,2.4,1.5,6.5,1.7,10.7,1.2,4.1-.5,7.6-1.6,14.3.2,6.6,1.8,10.6,1.7,10.6,1.7,0,0-2.5,1.5-6.9,2.3-4.4.8-12.5,0-16.7.8-4.1.8-10.7,1.9-9,3.4,1.6,1.5,2.9,3.9,8.6,5.7,5.7,1.8,6.7,0,10.1.9,3.4.9,1.6,4.7,2.5,5.3.9.6,7.4-.5,13.8-1.7,6.4-1.2,4-2.2,9.1-3.5,5.1-1.3,5.2-5.1,8.2-6,2.9-.9.8,2,4.3,2.8,3.5.9,1.6,1.1,5.3,1.7,3.8.6,3,2.1,6.7,1.8,3.7-.3,8-2.7,7.4-3.2-.5-.4-1.1-1.5-.7-3.3.4-1.7-3.7.3-5.2,1.2-1.5.9-1.4-2.3,1.7-3.9,3.1-1.5,5.9,0,7.7,0s.2-5.3-3.1-6.2c-3.3-.9-4.8-2.9-9.8-5.7-5-2.7-2.4-3.9-3.9-7.5-1.5-3.6-4.6-14.2-7.4-16.1-2.8-1.9-5.7-1.4-8.5-3.3,0,0-.6,2.7.6,7.4ZM314.3,38.5c1.2,3.4,1.4,1.3-1,5-2.4,3.8-1,5.1-2.7,8-1.6,2.8-6.1,6.6-4.7,8.5,1.4,1.9,5.8,3,7.6,4.5,1.8,1.5,3.7,4.5,7,3.3,3.3-1.1,4.4-1.9,6.7-3.1,2.3-1.2,4.2-2.6,4.1-5.6,0-3-.2-4.4.7-4.2.9.3,2.4,1.6,3.1-.3.7-2,2-4.5,3.6-6.1,1.6-1.5,6.1-3.1,8.2-4.9,2.1-1.8,5.7-3.8,6.7-5.3,1-1.6-1.8-2.7-3.6-3.4-1.7-.7-3.8-3.4-7.8-3.4s-6.3,3.1-6.1,1.7c.2-1.4-2.8-2.1-4.4-2.7-1.7-.6-3.2-1.5-8.5-.9-5.2.6-7.4.9-11.6,2.1-3.6,1,1.3,3.3,2.5,6.8ZM434,79.5c-.5.8-2.9,1.5-4.4,3.3-1.5,1.7,3.1.8,4.6,1.3,1.5.5,2.6,2,3.8,2.4,1.2.4,7.6.7,10.3-.6,2.7-1.3,2.9-1.7,2.7-2.3-.3-.6-5.5-5.7-9.4-7.8-3.9-2.1-4-2.1-4.8-1.6-.8.5-2.2,4.6-2.8,5.4ZM416.7,39.4c-2.5,1.2-4.3,2.7,0,4.9,4.2,2.1,5.6,3.9,8.5,5.7,2.9,1.8,4,6.9,10,4.6,6-2.3,8.4-5.1,9.2-7.5.8-2.4-.8-2.9-2.3-5.1-1.5-2.2-1.8-3.2-4.9-2.8-3,.3-4.1.3-4.1.3,0,0,2-2.6,5.3-4.2,3.3-1.6.5-2.7,2.1-4.3,1.6-1.5-3.9-2.3-6.3-1.7-2.4.6-2.5-.2-6.4-.3-4-.2-10.2,3.4-9.9,4.7.3,1.3,3.2.8,6,2.3,2.8,1.5,3.6,1.4.8,5.7-2.8,4.4-4.2-1-5.2-1.7-.9-.7-.2-2-2.8-.7ZM399,31.5c-4.1.4-5.5,3.3-4,3.7,1.6.4,2.6-.4,5.1,2.2,2.5,2.7,4.7,4.1,5.7-.3,1-4.4-.5-6.3-6.8-5.7ZM332.6-1.6c-4.6,3.7-5.5,6.6-9.1,8.9-3.6,2.3-2.8,4.3-1.6,5.6,1.2,1.3,4.8,0,6.4-.9,1.7-.9,3-3,4-1.7,1,1.3,5.2-4.4,6.9-6.3,1.7-1.9,4.2-3.9,4.7-3.8.5,0-1.6,2.2-.8,4,.7,1.8,4,1.9,7-1.2,2.9-3.1.3-5.9,2.6-8.3,2.3-2.4,4.2-2.1-.3-4.2-4.5-2.1-7.4.3-8.3,1.4-.9,1.1-2.6-.7-11.6,6.5ZM360.6,4.2c-2.6.1-3.8.5-8.1,2.4-4.3,1.9-6.2,6.8-7.2,9.4-1,2.7.5,2.7,4.4,4.2,3.9,1.5,9.5-.4,10.8-4.1,1.3-3.7,2.9.9,2.1,2.7-.7,1.9,2.8.2,4.4-.7,1.7-.8,6.6-1.2,7-1.2s-4,3.3-8.4,4.8c-4.3,1.5-7.8,2.2-9,2.4-1.2.2,1.1,2,6.2,3,5.1,1,8.1-3.1,15.4-5.8,7.3-2.7,6.9-3.3,9.3-2.6,2.4.7,5-1.2,7.9-1.9,2.9-.7,4.1.4,5.4-3.9,1.3-4.4,3.6-8.6-.6-8.8-4.1-.3-4.4-.3-5,4.5-.6,4.7-.9,1.8-.9,1.8,0,0-2.8-4.1-4.4-6.3-1.6-2.1-2.9-5.5-4.7-7.3-1.8-1.8-2.7.8-5.5,3.9-2.9,3.2-.6,4.4,2.3,5.7,2.9,1.4,4.9,4.9,3.5,5.8-1.4.9-2.9-.2-8.2.4-5.2.6-5.1-1.6-6.5-2.3-1.5-.7,2.5-2.1-3.1-4.5-5.6-2.3-5.2-1.9-7.1-1.8ZM343.6,8.7c.6-1-7,4.5-8.1,6.2-1.2,1.8,1.2,1.5,3.5,1.4,2.3,0,2.8-4.3,4.7-7.6ZM358.2-2.7c-1.9.8-1.9,1.5,1.2,1.8,3.1.3,4.9-1,4.2-2.3-.6-1.3-3.9-.2-5.4.5ZM373.8-19c-2,.3-8,2.4-8.3,3.5-.3,1,0,3.3,1,5,.9,1.8,1.2,2,6.4.6,5.2-1.4,8.7-4,7-4.5-1.7-.5-2.7-1.2-4.3-1.4-1.5-.2,1.3-1,4.7-2.1,3.4-1.1,4.6-2.9-6.5-1.1ZM356.4-16.3c-1.5.7-2,.7,1.1,1.8,3,1.2,6.3,1.1,5.9.1-.4-1-2.9-3.9-6.9-2ZM368.3-24.7c-2.9,1.1-3.5,3.2-4.2,4-.6.8,3.3-.6,5.1-1,1.8-.4,2.2.6,4-.9,1.7-1.5,5.2,0,8.3-.6,3.1-.7,3.6-2.7,2.9-4.5-.7-1.8-7.9-.2-16.1,3.1ZM399.5-16.9c-.8.4-.6,1.8.2,3.3.7,1.6.9,1.2,2.5,1.8,1.6.6,3.1,1.8,3.5,2.2.4.4.6.5,1.2-1,.6-1.5-.3-1.3-2.1-3.3-1.7-2.1-3.1-4.1-5.3-3ZM410.1-3.5c-2.4-.6-3.7.7-4.6,1.2-.9.4.5,1.4,1.1,3.3.6,1.9,0,2.5,3.6,2.7,3.5.3,4.6-.4,4.8-2.6.3-2.2-2.7-3.9-4.9-4.5ZM423.7.5c-2.2-1.6-3.2-2.9-5.4-2-2.2.9-.4,2-.4,2.6s2.7,0,2.7,1.4c0,1.5.9,2.1-2.3,2.2-3.2.2-4.1,0-5.3,1-1.2.9,2.4-.1,3.5,1.3,1.1,1.5,3,1.6,6.1,1.2,3.1-.5,7.3-1.2,7.3-1.2,0,0-2.3,2.1-3.2,3.6-.9,1.5-1.3,3.6.3,4.7,1.6,1.1,1.8-1.1,6.3-1.2,4.5,0,5.8-2.4,5.8-2.4,0,0-1-1-.9-3.2.1-2.2,0-2.7,0-2.7,0,0,1.8,1.3,2.2,1.8,0,0-.3-1.3-1-3.7-.6-2.4-.1-2.6-.8-5.8-.7-3.3-.6-3.9-3.9-3.9-3.4,0-5.7,1.2-8.4,1.2s-4,.5-1.9,1.5c2,1,2.3,2.3,3.3,3.4,1,1.2.8,3.9.8,3.8,0-.1-4.6-3.8-4.6-3.8ZM406.9,12.7c0,0,0,0-.1,0-1.4.7-1.9,2.2-2,3.3,0,1.1,1.8.5,4.9-.6,3.1-1.1,1.6-4.2-2.8-2.8ZM450.3,6.9c-2.6,1.4-4.6,3.3-6.1,4.9-1.5,1.7-.2,1.9,3.6,3.8,3.8,1.9,7.9,2.3,9.7.3,1.8-2-.8-12.5-7.3-9ZM468-8c-4.9.5-3.4,1.2-9-.6-5.7-1.9-12.8-2.1-14.7-2.1s-1,.9,1,4.2c2,3.3,2.5,4.4,6.7,3.4,4.1-1,7.5-1.7,10.6,2.6,3,4.4,4.6,5.7,2.1,7.3-2.5,1.6-1.3,4.2.1,7.5,1.4,3.3,4.8,3.2,9.4,3.2s33.9-.4,38.4-1.3c4.5-.8,8.6-4.7,11-6.4,2.4-1.7,3.7-4.4.4-6.4-3.3-2-8-3.9-11.7-3.9s-6.9,1.9-12.6,2.5c-5.7.6-4.4,3.3-9.5,3.4-5.1.1-2.6,2.4-8.9-.2-6.3-2.6-10.9-5.8-7.9-6.2,3-.4,5.4-.8,3.7-2.2-1.7-1.4-4.6-5.3-9.1-4.8ZM409.5-31.9c3,1,3.8,1.8.4,2.7-3.4.9-6,3.3-2.6,2.8,3.4-.4,6.3.3,10.6,1,4.4.7,4,.3,5.9,2.7,1.9,2.4,4,2.4,7,1.7,3-.7,3.4-.9,1.4-3-1.9-2.1-3.9-6-6.6-7.6-2.6-1.5-4.8-3.7-7.5-3.5-2.6.3-3.2.3-5.5-2.8-2.3-3.1-4.1-1.6-7.4-.8-3.3.8-4.4,3.2-5.7,4.2-2.6,2.1,6.8,1.3,9.8,2.4ZM449.3-63.4c-3.6,4.5-6.5,8.3-2.4,8.7,4.1.4,5.9-.3,6.1,1,.3,1.3-.7,2.2-6.8,2.2s-4.2,1.4-.8,5.3c3.4,4,3.7,2.6,8.9,2.5,5.2-.1,6.9-2,11.2-.9,4.3,1.1,5.6,2.2,1.7,3.3-3.9,1.2-13,3.3-10.9,5.3,2.1,1.9,8.5,6.6,11.4,7,2.9.4,3.5-1.9,9.8-1.2,6.3.7,4.8,1.4,5.4-.4.7-1.7,4.1-6.2,4.8-7.8.7-1.6,2.4-2.6,5.9-3.4,3.5-.8,4.6-1.9,1.3-3-3.2-1.2-6.9-1.7-6.6-2.6.3-.9,2.3-3.5,1-4.9-1.4-1.3-3.6-1.3-5.4-2-1.8-.7-3.8-4-6.1-5.4-2.3-1.4-4.3-1.5-7-3.7-2.8-2.1-7.2-7.3-12.7-7-3.7.2-5.3,2.4-8.9,6.9ZM442.2-25.8c-1.4.7-4.8.8-2.3,2.9,2.5,2.1,1.9,2.2,5.1,1,3.3-1.2,7.9-4.2,8.4-5.1.4-.9-3.2-2.6-5.7-3.4-2.5-.8-4.2-2.8-9.4-4.2-7.5-2.1,5.3,8.1,3.9,8.8ZM611-92.7c-5.7-1.5-26.1-5.5-32.7-3.9-6.6,1.5-6.3-3.4-15.5-2.2-9.2,1.2-23.4.5-27.8,1.2-4.4.7,2.2,2.6,4.6,4.1,2.4,1.5-11.4-1.7-21.9,1.2-10.5,2.9-17.3,4.5-6.1,8.7,11.2,4.3,12.7,5.5,12.7,5.5,0,0-14.4-2.6-20.4-5-6.1-2.4-2.8-2.2-14.2,1-11.4,3.3-22.4,5-21.9,8.4.5,3.4,9.2,8.1,14.9,9.2,5.7,1.2,17.5-1.7,18.4-2.1.9-.3-4.6,4.6-4.6,4.6,0,0,5.9-1.2,12.5-2.9,6.6-1.7,11.8-3.6,18-5.8,6.3-2.2,7.4-2.9,7.4-2.9,0,0-10.9,8.4-18.4,11.3-7.5,2.9-17.3,4.8-21.9,5-4.6.2-3.9,3.1.7,5.5,4.6,2.4,8.1,7.5,10.5,9.2,2.4,1.7,2.8,4.5,2.8,4.5,0,0-7.2-5.7-15.1,0-7.9,5.6-6.8,8.6-4.8,9.2,2,.7,9,1.4,10.3,3.8,1.3,2.4,10.5-2.2,10.5-2.2,0,0-4.6,5.8-9,5.8s-4.2-3.8-10.7-3.1c-6.4.7-6.1,2.2-3.3,4.5,2.8,2.2,5,2.9.2,5.1-4.8,2.2-7,2.9-7.2,5.7-.2,2.7,6.3,2.7,10.3,2.7s7.9-.4,15.3-.5c7.4-.2,6.4-2.6,9.2-2.6s5.5.9,4.4,3.6c-1.1,2.7,1.1,1,9.2-1.9,8.1-2.9,4.4-7.4,3.9-8.9-.6-1.5-3.5-2.1-5.3-2.9-1.8-.9,5.5-8.4,4.4-11-1.1-2.6,9-.5,13.6-6.5,4.6-6,2.9-10.5-.4-11.5-3.3-1,6.1-.3,9-2.1,2.9-1.7,9.4-3.8,12-7,2.6-3.3,3.5-4.5-2.8-3.8-6.3.7,9-2.7,16.4-7.5,7.4-4.8,15.8-10.4,17.7-11.8,1.8-1.4,3.5-.7-5.1-.2-8.6.5-18.9-.7-13.2-1.4,5.7-.7,22.6-2.7,27-6,4.4-3.3,6.4-4.3,6.4-4.3ZM508,26.2c-9.2-.9-22.6-3.1-25.4,4.8-2.8,7.9-7,25.4-7.4,28.6-.4,3.3,11,8,18.9,8.4,7.9.3,20.8.9,18.2-1-2.6-1.9-.4-2.9,7-2.6,7.4.3,8.1-1.5,8.1-3.1s1.3,1.9,6.4,4.6c5.1,2.7,9.6,10.5,14.2,14.9,4.6,4.5,14.9,10.4,12.9,13.9-2,3.4,2.2,15.4-13.6,18.2-15.8,2.7-16.7.8-16.5,4.5.2,3.6.9,5.1,7.2,5.1s14.9-5.1,17.8-1.4c2.9,3.8,7,5.1,9.6,6,2.6.9-3.1,2.4-4.6,2.9-1.5.5,3.1,1,12.1,5.3,9,4.3,19.9,4.8,14.5,1.7-5.3-3.1-7.9-8.7-10.3-10.6-2.4-1.9-.2-.3,4.1.7,4.2,1,8.1,4.5,9.9,6,1.8,1.5,2.8-.5,4-6.5,1.3-6-.5-6-7.7-10.8-7.2-4.8-9.4-8.6-10.1-12-.7-3.4,3.7-4.1,5.5-6.5,1.8-2.4,7,4.3,10.5,8.2,3.5,3.9,6.4,10.8,9.2,5.8,2.8-5,5.3-16.1,5.3-18.7s-2.8.2-14.5-5.7c-11.8-5.8-17.9-8-18.9-8s3.1-2.2,8.3-4.8c5.1-2.6,7.4-2.2-3.7-12.7-11-10.5-14.2-12.7-21.3-13.4-7.2-.7-9.2-8.2-14.3-10.8-5.1-2.6-17.1,3.1-20.6,3.9-3.5.8-2.4,2.2-6.8-4.1-4.4-6.3-7.9-11-7.9-11ZM516.3,26.2c-4.6.5,2.8,8.9,8.6,9.3,5.9.3,10.9-2.6,12.1-2.9,1.3-.3-13.6-7.2-20.8-6.3ZM495.6,111.2c-.8,1.9-2.6,7.1-2.9,10.5-.3,3.5-.8,4-1.5,6.2-.7,2.2,2.2-.4,4.1,2.8,1.9,3.2,1.1,4.1,4.5.4,3.5-3.7,7.3-5,12.1-3.5,4.8,1.5,8.6,2.2,6.9-.8-1.7-3-3.9-2.7-7.2-6.7-3.3-4-5.8-5-9.9-6.6-4.1-1.5-4.6-6.4-6.2-2.4ZM530.3,411.4c-1.4-3-3.6-7.8-12.5-9.4-8.9-1.7-12,1.7-15.3,2.8-3.3,1.1,3.1,1.7,7.3,0,4.3-1.7,7.5-.4,8.1.4.6.8-1.4,1.2-2.2.4-.7-.8-.9,2,3.9,3.7,4.8,1.7,6,2.6,6.5,4.6.5,2.1.4,3.2,1.5,4.9,1.1,1.7,1.5,2.5-.5,3.2-2,.8-1.3.7.2,1.6,1.5.9,4.5,2.5,8.7,2.8,4.2.4,5.6,1.1,2.7-2.7-2.9-3.9-8-11.3-8.5-12.3ZM543.7,430.2c2.3,2.4,1.7,5,1.5,6.4-.2,1.4-2.7.3-7.3-.9-4.6-1.2-3.9-.6.1,1.5,4,2.2,6.6,1.6,6.4,4.5-.2,2.9,3.7.3,5.4-1.4,1.7-1.7,1.6-.2,8.7.9,7.1,1.1,8.6,2.4,7.5-.8-1.1-3.1,3.3-2.9-3.1-5.9-6.3-3-21.9-7.1-19.2-4.4ZM523.4,432c-2.7-3-6-3.4-6.1-.9,0,2.5.9,2.4,3.4,3.1,2.5.7,4.4-.3,2.7-2.2ZM575.2,444.8c-2.9-1-3.5,1.2-1.6,3,1.9,1.8,4.9,1.2,7.9,1.1,2.9-.1-1.2-2.3-6.3-4.1ZM541.6,86.3c-3.9,1.6-6.1,2.8-2.8,7.2,3.4,4.4,5.4,7.2,6.7,4,1.3-3.2,2.6-13.9-3.9-11.2ZM510.7,133.9c-5.8.9-7.7,1.1-6.8,4.4.9,3.3,2.5,2.7,6.4.8,4-2,6.7-6.2.4-5.1ZM522.8,138.9c-1,.3-1.3,2.6,0,4.6,1.3,2.1,3.8-.7,4.9-3.2,1.1-2.5-1.2-2.6-4.9-1.5ZM459.2-19.3c-5.5.2-13.8,2.1-9.2,2.2,4.6,0,8.4,1,15.8.6,7.4-.4,8.2-.9,8.4-4.5.2-3.6-4.9,1.4-15,1.7ZM424.7-49.5c-5.6,1.7-4.2,2.9,2.4,5.8,6.6,2.9,6.8,1.5,6.1-3.9-.7-5.5-5.1-2.9-8.5-1.9ZM817.8,93.9c-7,1.9-9.3.8-10.6,4.3-1.3,3.5-4.1,1.6-5.6,2.1-1.6.4-3.8,10.3-4.9,8.8-1.1-1.5-1.5-2.3-3.1-5.7-1.6-3.4.5-2.8-2.5-6.4-3.1-3.6-9.1-3.2-9.6-1.7-.4,1.5,4.2,2.7,2.6,4.3-1.6,1.7-5.3,3.7-6.7,4.9-1.4,1.2,2.7.7,5.3,0,2.6-.6,4.4,2,5.5,3.8,1.1,1.8-1.2,3.6-2.3,4.5-1.1.9,3.8.7,5.8,1,2,.4,3,2,1.7,4.2-1.3,2.2,5.8.3,9.8,0,4-.2,5,2.7,11,.8,6-1.9,8.9-1.8,14.4-5.8,5.5-4.1,5.1-3.1,8.7-5.7,3.6-2.6,2.8-3.4,2.9-6.3.1-2.9,2.4.8,1.5-3.6-.8-4.4-5.3-3.2-8.5-3.5-3.1-.3-3-2.8-4.6-3.6-1.6-.8-3.7,1.3-10.7,3.3ZM1283.5,471.3c-.3,1-.7,2.2-.7,4.5s-.3,4.8,0,7.1c.2,2.3.3,3.9,1.6,4.5,1.3.5,2.2,1,4.3,0,2.1-1,4.1-2.7,3-5.4-1.1-2.7-3-6.3-4.2-8.3-1.1-2-3.4-4.5-3.9-2.5ZM1281.8,468.1c.2,1,.5.8,1,1.5.5.7,1,0,.3-.8-.6-.9-.6-1-.6-1,0,0-.8-.3-.8.5M1480.4,604.8c0,.1-.2.2-.2.2-3.8,3.8-7.2,2.8-13.7,4.8-6.6,2.1-18.1,8.7-18.9,11.7-.8,2.9,0,3.3-.8,2.9-.8-.4-2.2-2.2-2.2-2.2,0,0-1.8,3.6-1.4,6.8.4,3.2,1.9,5.1,1.8,9.3-.1,4.1-1.7,6.6-1.5,9.4.1,2.8,4.8,8.2,6.1,11.6,1.2,3.3,2.1,2.4,2.8,8.5.7,6,3.9,9.4.7,12.6-3.2,3.2-5.5,2.6-1.6,5.9,3.9,3.3,7,5.5,13.2,3.3,6.2-2.2,4.6-4.1,9.4-5.1,4.8-1,5.8-2.1,9.9-2.3,4.1-.3,7,.1,8.6-2.8,1.5-3,.4-2.8,4.5-4.9,4.1-2.1,3.7-2.6,6.5-3.1,2.8-.5,4.5,1.4,8.3-1.5,3.7-3,1-3.2,9.2-3.2s11.7,1.2,14.8,2.2c3,1,8,3.7,9.2,5.7,1.2,1.9,2.9,4.2,3.4,4.2s1.2.1,3.2-1.8c1.9-1.9,7.4-5.8,7.4-5.8,0,0-.3,4.1-1.5,5.7-1.2,1.5-1.2,3.7-1.2,4.5s3.2-2.5,3.6-2.6c.4-.1.8,5.7,1.2,6.2.4.5,1.7.3,2.9,1.9,1.2,1.7,2.9,3,4.1,6.2,1.2,3.2,6.5,6.4,9.8,6.9,3.3.5,6.2.3,8.7-.1,2.5-.4,2.6-3.3,5.2-2.2,2.6,1.2-.1,3.6,6.1,3.1,6.2-.5,7.9-2.6,10.3-4.2,2.5-1.7,2.8,2.3,5.9-2.1,3.2-4.4,3.7-3.3,4.3-8.6.6-5.3.4-6.3,3.4-11.3,3-5,3.7-2.6,5.8-9.9,2.1-7.3,4.7-14.3,4.4-20.3-.3-6,.1-2.1-1.2-8.9-1.4-6.8-.4-6-4.8-8.9-4.4-2.8-5.5-2.1-6.6-6-1.1-4,.3-5.1-1.8-5.1s-3.9.9-5.1-1.8c-1.2-2.7-1.1-3.7-3.4-6.3-2.3-2.6-4.5-2.1-8.8-4-4.3-1.9-2.1-2.4-2.1-5.8s.2-6.9-3.2-8.4c-3.4-1.5-1.4.9-1.4-4.6s0-4.7-2.8-5.6c-2.8-.9-3.7-.9-5.4-4.2-1.7-3.3-4-8.8-4.9-11-.8-2.2-1.8.3-2.9,1.9-1.1,1.6-2.7,5.2-2.7,8.6s1.5,5.2,1.5,9.7-3.1,8.9-5.1,11.5c-1.9,2.6-3.5.3-5.2-.4-1.7-.7-2-3.2-5.5-4.9-3.5-1.7-9.9-3.3-12.9-5.9-2.9-2.7-.9-2.7,0-5.5.9-2.7,2.2-5,4.4-6.8,2.2-1.8,1.6-2.5-1.2-4-2.8-1.5-6.6-1.6-11.3-1.6s-7.4-.3-7.2,2.3c.3,2.7,3,3.7-.9,2.9-4-.8-7.4-1.1-9.1.8-1.7,1.9-2.1,3-3.1,7-1,4,.3,4.3-1.4,4.3s-8.2-3.2-10.4-4.1c-2.2-.9-3.4-.9-6,1.5-2.6,2.4-11.5,10.2-14.8,12.1-3.3,1.9-3.1,1.5-6.5,12ZM1357.7,489c-2-.3-3-.8-.6,2.3,2.4,3.1,3,3.7,5.3,5.8,2.3,2.1,3.1-1.5,4.9,2.6,1.7,4.1,1.1,4.2,2.9,5.7,1.7,1.5,3.2,2,3.7,3.5.5,1.5,1,3.9,3,5.7,2,1.7,2,1.5,3.2,4.8,1.2,3.3,3,5.7,4,8.6.9,2.8,6.2,5.5,8.8,8.9,2.7,3.4,7.2,8.4,7.9,7,.7-1.4,2.7,0,4-.5,1.4-.5,1.8-2.5,2.8-7.3.9-4.8-.8-7-2.1-8.1-1.3-1.1-3.7-1.4-4.3-2.4-.6-1-1.7-4.5-3.3-5.7-1.6-1.1-1.9,0-1.9-2.7s1.8-2.5-.5-4c-2.3-1.5-2.6-2.7-3.3-3.4-.7-.8-5.7-2-7-3.3-1.3-1.4-6.7-3.9-9.3-6.4-2.6-2.6-5.4-4.6-6.3-6.5-.8-1.9-3.4-3.4-11.9-4.5ZM1411.2,544.3c-2.2,0-3.3-1.3-4.8,1.4-1.5,2.7-1.3,2.7,1,2.7s1.8,1.2,1.7,1.5c0,.3-1.1-.3,3.6,1.6,4.7,1.9,8,1.1,9.3.4,1.3-.7,1.7,1.7,8.2,2.7,6.4,1,9.8-.6,14,.4,4.1,1,3.1-.5.2-2.7-2.9-2.2-2.7-1-5.6-3.2-2.9-2.1-7.1-2.2-9-2.6-1.9-.3,1.6,2.1-4.2,1.3-5.9-.8-3.8.5-6.8-1.4-3-2-3-2.3-5.1-2.7-2-.3-2.5.5-2.5.5ZM1457.9,553.7c-1.7.5-5.1,1.5-3.5,2.1,1.6.7.4,1.1,5.2.7,4.9-.4,9.1-1,9.7-2.1.6-1-.8-.3-2.9-.9-2-.6-1.8.4-4.6.8-2.7.3-4-.6-4-.6ZM1475.1,553.3c-3.3.4-2.9,1.1-.3,1.9,2.6.8,5,1.1,6.9.6,1.9-.5,2.2-1,5.8-1.6,3.6-.6,4.8-.5,7.6-.9l2.9-.3s-.3-.6-2.2-.5c-1.9,0-3.3.2-5.2.2s-5.2,1.7-6.6,1.6c-1.4,0-4-.9-4.7-.5-.6.4-.6-.9-4.1-.4ZM1493.4,557.5c0,0,0,0-.1,0-2.3,1.6-2.4,2-2.2,3.2.2,1.2-.2,1.8-.2,1.8,0,0,3.3-.2,5.9-2.7,2.6-2.6,2.7-2.5,5.3-3.5,2.6-.9,5.6-3.8,5.6-3.8,0,0-2.1.4-4.3.3-2.3-.2-4.5,1.2-5.2,1.8-.7.6.7.8-4.6,2.8ZM1474.2,558.9c-2.4-1.7-4.7-1.5-4.9-.4-.2,1.1-2.1,1,1.3,2.3,3.4,1.2,6.6,2.9,6.4,1.2-.2-1.7-1.7-2.3-2.8-3ZM1452.2,487.5c-1.4,2,1.3,1.5-.7,3.2-2,1.7-3.6.9-5.6,3.5-2,2.6-5.1,4.4-6.4,5.3-1.3.9-5.4,2-7.3,4.5-1.8,2.5.6,3.9.6,3.9,0,0-1.1.5-4.1-.6-2.9-1.1-3.1-2.5-3.1-2.5,0,0-2.1,0-3.3,3.1-1.2,3.2-1.9,3.5.3,5.4,2.1,1.9-1.5,2-1,3.3.5,1.3.5,3.7,1.7,3.9,1.3.3,1.6-1.2,3.1.8,1.6,2,.3,7.5,2.3,7.8,2,.3,3.5-.6,5.2.2,1.8.8,3,1.5,5.3.7,2.3-.8,4.8,0,6,.7,1.2.7,5.5,2.1,7.6,2,2.1-.2,2.5.3,2.9-2.7.4-3,0-5.8,2.7-8.1,2.6-2.3,2.7-2.3,2.9-4.5.2-2.1.2-4.4,1.8-6.6,1.6-2.2,2.5,1.3,3.3-.4.8-1.7,1.7-1.7,1.2-2.6-.5-.9-2.9-.9-3.8-2.5-.9-1.6.3-2.5-.8-5.8-1.1-3.3-1.7-2.1-.2-3.9,1.6-1.9,2.9-2.2,3-3.7.2-1.5.8-1.5,2.8-2.9,1.9-1.4-.3-.7-2.1-2.1-1.8-1.4-5.3-6.5-7.4-6.5-1.2,0-5.5,5.2-6.9,7.2ZM1724,669.3c-.9-.6-1.6-.2.4,2.2,2,2.4,2.2,1.7,3.5,1.8,1.3,0,2.4,4.8,3.1,6,.7,1.2,2.1,2.7,2.1,2.7,0,0,.7,5.1,0,7.5-.6,2.3-2,3.3-2.5,5.5-.5,2.1,2.1,1.5,3.8,2.2,1.6.7,1.4.7.7,2.6-.6,1.9-2.6,2.7-2.6,3.1s3.8,2.5,5.7.2c1.9-2.3,5-5.7,5.8-8.2.8-2.5-1.5-1.4,1.2-3.2,2.7-1.8,2.3-.9,3.7-3.2,1.4-2.2,2.8-4.5,1.3-5.7-1.6-1.2-3.3,1.5-4.7,2-1.4.5-2.5.6-4.4-.3-1.9-.9-2.3-.9-3-2.7-.7-1.7-1.7-2.7-1.7-2.7,0,0-.6,2.9-1.9,2-1.4-.9-1-2-2-3.6-1-1.6-1-2.1-1.7-3.3-.6-1.2,0-3.5-3.3-3.9-3.2-.3-2.8-.3-3.6-.9ZM1724.6,700.4s-2.6,2.2-4.9,5.4c-2.3,3.2-2.7,4.4-3.4,6.1-.7,1.7-3.4,3.8-7.8,6.1-4.4,2.3-6.1,3.3-7.5,5.4-1.5,2.1-6.7,8.8-7.4,9.6-.6.8,2.5,1.5,5.7,1.5s8.3,2.9,11,0c2.8-3,5.5-10.1,7.3-12.7,1.7-2.6,3.4-3.5,6.2-6,2.8-2.5,7.4-7.1,7.4-8.9s-1.2-4.7-1.2-4.7c0,0-1,2-3.4,1.7-2.4-.3-1.9-3.4-1.9-3.4ZM1702.9,733.3c-3.2-1.7-3.9,1.5-4.4,4.7-.5,3.3,1.4.5,4.2-1,2.8-1.5,1.4-3.1.2-3.8ZM1593.5,710.8c-3.6-1.2-3,2.2-2.5,4.8.5,2.6,1.3,4.6,2.7,6.8,1.4,2.1,6.5,2.9,8.6,2,2-.9,3.5-4.1,5.5-7.1,2-3,2.9-6.4,2.6-8.2-.4-1.8-2.9,1.6-4.6,2.4-1.6.8-3.9,2.7-7,1.9-3.1-.9-4-2.1-5.2-2.5ZM1547.7,526.9c-2.9.7-4.4-1.9-6.8-6.9-2.4-5-4.2-5.6-10.3-3.4-6.1,2.2-5.1,1.7-1.1,3.3,4.1,1.5,4.6,2.1,5.1,2.1s6.4.9,5.1,1.7c-1.3.9-6.8,1.7-3.3,4.1,3.5,2.4,2,.7,11.2,5.3,9.2,4.6,10.7,1.2,13.6,7.2,2.9,6,2.9,5,.5,6.5-2.4,1.5-5.5,3.1-4.2,3.3,1.3.2,3.7.7,9.9,1,6.3.3.4,3.9,7.4,3.9s8.8-2.2,11.6-5.5c2.8-3.3,3.3-1.5,9.2-.2,5.9,1.4,7.9,6.5,15.3,8.6,7.4,2.1,10.5,4.8,5.9.5-4.6-4.3-6.3-7.4-12.5-12.3-6.3-5-6.6-5.5-8.5-9.2-1.8-3.8-8.3-8.2-15.4-11.1-7.2-2.9-11.3-3.3-19.7-5.7-8.6-2.4-10.1,6.2-13.1,6.9ZM1499.3,509.8c-2.8,1.9-3.1.7-5.2-.5-2.1-1.3-1.5,2.7-6.1.5-4.6-2.1-6.3-3.2-11.2.4-4.9,3.6-1.8,5.1-2,7.7-.1,2.6-4.1,9.8-5.6,12.5-1.5,2.7-1.5,3.6-.3,5.3,1.1,1.7,2.8,1.1,3.4,1.9.7.8,0,7.6-.8,9.8-.8,2.2,2,2.7,4.8,2,2.9-.6.3-.8.3-3.2s1.4-3.4,1.4-7.8v-6.4s.8-.4,1.8,1.1c1,1.5,2.5,5.7,3.8,7.8,1.3,2.1,2.5,3.7,4.5,2.2,1.9-1.5,3.8-3.2,3.8-3.2,0,0-3.8-1.2-3.8-2.5s1.6-2.3-1-6.6c-2.6-4.3-4-4.5-.7-4.7,3.3-.2,3.2-3.5,5.1-4.5,1.9-1,4.7-.6,4.7-.6,0,0-2-2-4.9-1.2-3,.8-5.6,1.3-8.1,2.7-2.5,1.4-4.7,2.2-5.2-.3-.5-2.6-.8-3.2-.5-6.7.3-3.5,4.3-.8,7.3-1.7,3-.9,3-.6,9.5-.2,6.5.4,7-1.1,8.9-3.7,1.9-2.7,3.1-5.8,3.1-5.8,0,0-4.5,3.7-7.2,5.7ZM1514.8,500.5c.6-1.1-4.8,3.7-5.8,4.6-1,.9,0,2.3.7,3.7.7,1.4.6,6.1.8,7.1.3,1,3,2,3,2,0,0,0-3.2.9-4.6,1-1.5,0-3.3,0-5.9s-1.5-3.7.3-6.9ZM1504.2,528.6c-4.2-1.6-5.8-.6-5.8,1.7s-.5,3.3,4,3.3,9.6-2,1.8-5ZM1512.6,527.2c-1,.3-2.1,3.6-1.5,5.6.6,2,1.3.7,3.7.2,2.4-.4,2-2.3,5-2.5,3-.2,9.1,2.1,9.1,2.1,0,0,1.3-1.5-3.4-4.5-4.7-3-6.9-2.8-12.8-.9ZM1428.5,418.2s-4.2.1-4.9.1-2.1,1.6-3.2,2.3c-1.1.6-1.1,1.5-.3,3.2.7,1.7,2,1.8,4,2.3,2.1.6,1.3-.9,2.9-1.5,1.5-.6,1.9-1.9,2.3-3.2.3-1.2,1.3-1.8,1.7-2.2.4-.4-1.2-1.9-1.2-2s-1.3.9-1.3.9ZM1478.3,424.2c-1.7-1.2-2.6,3.1-3,5.3-.5,2.2-1,3.7-.2,5.3.8,1.6.5,2.1.5,2.1l-2.4-1.8s-.6,2.1-.6,3.9-.7,2.6,2,3.9c2.8,1.3,3.7.6,4,2.6.4,2,.4,2.8,2.2,3.2,1.8.3,4,1.1,4.7,2.3.7,1.2.4-3.2,1.7-2.9,1.3.3,2.8,1.9,3.7,3.3.9,1.5,2.3,1.5,2.3,1.5,0,0-2.1-3.5-1.2-3.9.9-.4,1.2-.8-1.2-2.2-2.4-1.4-4.3-1.1-6.2-1.4-1.8-.3-1.8,1.3-3.2-2.3-1.4-3.6-.3-5.8-.3-6.6s1,1.2,2.1-1.3c1.1-2.5,1.4-4.5,1.2-6.8-.2-2.4,1.7-3.3.3-3.4-1.4,0-5.4,0-6.3-.7ZM1500.2,470.2c.3,1.7-1.6-.5-2.4.5-.7,1-1.1.8-2.3,1.3-1.2.5-4,3.1-4,3.1,0,0,0-1.7,0-2.1,0-.4-.9-2.4-1.7-1-.9,1.3-1.7,2.2-3.6,3.2-1.9,1-3.1,2.4-3.4,4.1-.2,1.7,1.2,1.7,1.2,1.7,0,0,.8-.6,2-2.6,1.3-2,1.5-1.9,3.8-2.2,2.3-.3,2.1-.3,2.9,1,.7,1.3.2,3.2.2,4.5,0,1.4,0,3,2.3,3.9,2.4.8,1.2,0,3.4-.1,2.2-.2,2.1-.1,1.8-1.2-.3-1.1-1-2-1.1-3.3-.1-1.3,1.3-1.8,1.7-2.1.4-.3.7,1.3,1.4,2.9.7,1.6.9,1.5,1.2.3.3-1.2,1-4.1.8-5.7-.3-1.5-.4-2.7-.4-4s-1.1-2.8-1.7-3.3c-.6-.5-2.8-2.3-2.8-2.3,0,0,.3,1.8.6,3.5ZM1489.6,459.7s0-1.1-1.9-3.1c-2-2-2-2.5-5.1-3.1-3-.5-6.1.3-4.8,3.5,1.3,3.3,1.7,3.7,4.2,4.1,2.6.4,4.1-1,4.1-1,0,0,.2.5-2.2,2.1-2.4,1.5-2.7,4.4-.8,5.6,1.9,1.1,1.9,2.9,3,2,1.1-.9,1.9-3.9,4.1-6,2.2-2.1,2.4-2.4,2.7-4.6.3-2.2,0-4,0-4l-3.3,4.4ZM1494.8,453.4c-.3.2-1.9-.2-.2,1.4,1.7,1.6,3.2,2,3,3.1-.2,1.2,0,1.4-1,1.3-.9-.1-1.2-.4-1.6-.4-.4,0-.5.8-.2,1.5.3.7.2,0,1,1.2.8,1.3.6,1.7.8,3.1.2,1.4.9.7.9.7,0,0-.2-3.5-.1-4.2.1-.7-.3-2.4.9-1.9,1.2.5.9,2.6,1.6.7.7-1.9.4-3.6,0-5.2-.3-1.5-1.6-1.6-3-1.6s-2,.1-2,.1ZM1471,459.4c-.7.2-1.1.8-1.5,3.2-.4,2.3-1.7,3.6-3.1,4.9-1.4,1.4-5.3,5.1-5.5,5.8-.2.7-.2.3,2.6-1.1,2.9-1.3,5.1-3.1,5.5-5,.4-1.8-.3-.7,2.2-1.9,2.5-1.2,1.2-1.6,1.3-3.4,0-1.9-.2-2.9-1.5-2.6ZM1623.3,529.5c-.3,2.4.7,3.1-1.5,4.8-2.2,1.8-4.7,1.8-7,2.1-2.3.4-.6-.4-3.5-.5-2.9,0-3.6.1-2.3,1.6,1.3,1.5,1,2.9,5.3,2.7,4.3-.2,7.8-2.5,10.6-3.3,2.8-.9,2.5-3.1,2.8-4.1.2-1-3.9-5.9-4.2-3.3ZM1635.2,534.7c1.2,1.7.7,1.4,2.3,3.6,1.5,2.2,3.9,2.6,5.7,3.2,1.8.6,0-.6-1.3-2.4-1.3-1.8-1.4-2.8-3.4-4.6-2-1.8-5.3-2.8-3.2.2ZM1479.9,390.6c-5.9,3.7-8.6,3.5-6.2,8.2,2.3,4.8,3.8,6.8,4.1,7.7.3.9,1.5-.6,3.1-4.4,1.6-3.8,1.8-8.7,2.4-10.2.6-1.5-1.5-2.6-3.5-1.3ZM1580.8,205.8c.6,2.5,1.3,6.3-.2,6.8-1.5.4-2.5,3.2-2.9,6-.4,2.8-1.1,6.4.5,8.6,1.6,2.2.5,2.4.5,4.3s.6,6.7-.4,9.5c-.9,2.8-1.5,3.5-1.1,6.5.4,3,0,3.6,0,7.9s-.3,7.7,0,9.4c.2,1.7,1.1-.8,1.7-1.4.6-.6,3.1-.9,4.5.5l1.4,1.5s2.2.9-.8-5.6c-3-6.5-3.6-5.1-2.8-11.1.8-5.9,1.3-6,4.4-6.6,3.1-.6,4.8,3.7,5.2,4.1.4.4-.3-1.5-1.4-4.8-1.1-3.3-2.1-4.5-2.5-8.6-.4-4.2-1.7-7.7-3.3-8.9-1.7-1.2-.8-3.2,0-4.8.7-1.6,1-4.1.6-6.9-.4-2.8-1.2-6.8-1.7-8.3-.5-1.5-2.3.9-2.3.9l.6,1ZM1578.1,271.4c.2,1.9.4,3.6-.9,5.7-1.3,2.1-.4,2.7-1.1,5.7-.7,3-4.3,0-4.3.6s-.6,2.7-1.5,3.5c-.9.8-4.1.9-3.1,3.9.9,3,2.6,6.2,2.6,6.2,0,0,1.8-1.7,2.4-1.9.6-.2,2-.6,2-.6,0,0-.3-.9-2.3-1.8-2-.9-1.8-2.9-1.6-3.5.3-.6,2.9.2,4.5,0,1.7-.2,3-1,5.1.6,2,1.6,5,2.2,5,2.2,0,0,.4-2.4,1.3-4.1.9-1.7,3.6-.9,6.3-1.7,2.7-.8,4.7-1.2,3.8-2.3-.9-1.1-.8-3.6-1.4-5.5-.5-1.9-2.3,0-3.7.6-1.4.7-3.1.2-5-1-1.8-1.2-5.1-5.7-6.3-7.5,0,0-1.8-.9-1.7.9ZM1569.8,299.5c-.9.4-2,2.7-1.8,5.2.2,2.5,2.3-.2-.4,7.5-2.8,7.7-4.1,9.4-6.8,11.4-2.7,2-5.2,2-6.2,1.5-1-.5.3-2.2,1-2.8.8-.5-2.4-.7-3.7-.5-1.3.2,0,1.7-.2,2.9-.1,1.2-2.7,4.5-2.4,6,.3,1.5.3,1.9-1.4,2.4-1.7.5-2.8-1.2-3.2-1.5-.5-.3-3,.5-6.2.9-3.2.4-4.1,1.5-5.4,3.9-1.4,2.4-4.6,2.8-7,3.7-2.3.9-1.4,4.2-4,5.4-2.6,1.2-2.6,3.3-2.8,5-.2,1.7,1.6.5,1.9.4.3-.1.3-2.4,1.9-2.2,1.6.3,1.8.3,1,2.1-.8,1.8-1.3,2.7-2.1,4.2-.8,1.5.3,2.3,1.5,3.8,1.2,1.5,2.4-.5,5-3.2,2.6-2.8,2.8-3.4,2.6-6.6-.2-3.1-1.2-3.2-3.2-4.1-1.9-.9-2.4,0-.2-2.5,2.1-2.4,3.1,0,4.6-1.2,1.4-1.1,5-1,8.3-1.9,3.4-.8,6.6-1.9,6.8-.8.1,1.1,1.2,4.8,1.3,5.5.1.8,2.4-1.1,4.6-1.9,2.3-.8.1-1.2,0-2.7-.2-1.5,1-2.3,1-2.3,0,0,1.2,2.4,4.8.7,3.7-1.7,3.9-2.4,4.9-2.2,1,.3,1.6,1.2,3.1.3,1.5-1,1.8,0,1.5.7-.3.8,4.4-1.5,5.4-2.2,1-.7.5,0,0-2.8-.4-2.7-1.7-2.9-1-6.4.8-3.5.6-3.8.8-6,.2-2.2,1-2.5,1.6-2.6.6-.1.6-3,1.7-4.6,1.2-1.5.9-2.2.9-5.8s-1.9-2.9-2.1-5.4c-.1-2.5.5-4.9.5-4.9,0,0-3.9,1.5-4.3,2.4l-.4.9s-.6-.6-1.9,0ZM1544.1,338.1c-4.1.7-7,1.1-9.4,1.9-2.4.8-2.9,1.8-2.6,4.3.4,2.4,1.3,4.8,1.7,6.1.3,1.3,1.7,0,3.9-1.2,2.3-1.2,2.1-4.7,4.3-4.7s1.4,2.5,4.3-1c2.9-3.5.7-3.8.8-5.6,0-1.8-3.1.3-3.1.3ZM1801.8,147.9c-4.4-.8-5.6-1.8-6-.2-.4,1.6-.9,2.1,1.9,3.1,2.8,1,4.1-.7,6.7,1.2,2.6,1.9,3.3,1.8,5.3,1.6,2-.3,2.8-1.2,2.8-1.2,0,0-7.3-3.8-10.6-4.4ZM1752,79.3c-1.6.4-2.9-1.1-2.5,2.8.4,3.9,1.3,4.4,6.3,3.7,5-.7,1.2-.2,8.1-.7,6.9-.5,8.3-1.5,8.3-1.5,0,0-1-1.9-3.3-3.7-2.3-1.8-5.5,1.2-10.8.3-5.3-.9-6.3-.9-6.3-.9ZM1596.6,21.4c0,1.5,6.9,5.7,9.4,6.9,2.5,1.2,4.4.7,9.7.1,5.2-.6,5.7-2.8,6.3-4.1.6-1.3-2.5-.8-6-1.5-3.5-.7-6.4.6-7.7,0-1.2-.6,1.9-1.3-1.2-2.4-3.1-1.2-3.9.4-4.6-.1-.7-.5-.8-1.6-2.3-1.7-1.5-.1-3.6,1.5-3.5,2.9ZM1569.6,30.2c-2.4,1-2.2,1.8.5,4,2.7,2.3,1.8,1.7.6,3.3-1.2,1.6,0,0,3.9,1.7,3.9,1.7,5.5,4.9,7.9,5.6,2.4.7,4.1-.2,4.1-.2,0,0-.8-2.6-3.1-5.7-2.3-3.1-7.2-4-8.1-6.7-.9-2.7-2.3-3.5-5.7-2.1ZM1594.2,17.6s-3.5-2.1-8.8-5.5c-5.3-3.3-7.3-4.2-9.1-4.5-1.8-.3-1.5,1.9-2.2,3.5-.7,1.7-1.2,1.3-3.9,0-2.8-1.3-5.5-3.4-8.3-4.1-2.8-.6-4.5,1.7-7.8,4.9-3.2,3.2-1.4,4.1,2.6,8.9,3.9,4.8,5.7,5,8.8,3.1,3.2-1.9,2.3-3.1,4.6-2.2,2.3.9,10.1-.9,10.4-.9s-.5,4.4,3,3.2c3.4-1.2,6.6-1.7,8.2-3.5,1.6-1.7,2.7-3.1,2.7-3.1ZM1355.3-74.2c-1,.8-6.9.3-9.9,5.1-3,4.8-5.1,1.5-6.7,4.4-1.6,2.9-2.9,6.4-2.9,6.4,0,0,2.8,3.3,5.7,3,2.9-.3,8.1,1,10.9,5,2.9,3.9,5,3.9,11.9,5,6.9,1.1,3.8,2.1,7.4,1.7,3.6-.4,8.5.4,7.4-1.4-1.1-1.8-1.9-2.9-1.5-6.4.5-3.5,3.7-3.3,0-5.7-3.8-2.3-6.4-.4-6.3-.9.2-.4,3.4-1.7,2.1-1.8-1.3,0-7.6-.4-8.4-4-.7-3.6,1.7-3.9,3-4.1,1.3-.3.9-.7-2.8-3.3-3.7-2.7-8.6-5.4-8.6-5.4-2.3,1.2-.4,1.5-1.4,2.3ZM1389.9-48.2c-2.7.5-4.9,3.2-6.4,5.5-1.6,2.3-4.7,5.8-6.6,7.4-1.9,1.5-1.4,2,1.7,3.1,3.1,1.1,8.6-2,10.2-2.1,1.6,0,2.8,2.3,7.7,1.7,5-.6,12.5-1.5,8.8-4.2-3.7-2.7-2.4-1.4-6.4-4.6-4-3.3-9.2-3.5-9.2-3.5,0,0,8.4-2.8,6.3-3-2-.2-6.2-.3-6.2-.3ZM1177.2-90.4c-4.8,1.7-3.1,2.6-6.3,5.1-3.1,2.5-1,3.2,5.7,1.5,6.7-1.6,7.1-2.3,11.4-4.3,4.3-2-3.7-4.9-10.9-2.3ZM1187.9-78.4c-4.5,2-3.3,4.1-2.1,5.8,1.2,1.7,4.5-1,5.4.9.9,1.9,1.2,1.1,5.4-1.7,4.2-2.8,2.7-2,1-5-1.7-3-2-3.4-9.8,0ZM1162.8-79.6c-2.9,1.4-2.9,1.2-.1,2.5,2.8,1.3,9.5,2.3,12.9,0,3.5-2.2,3.2-1.8-1.2-2.4-4.3-.6-8.4-1.7-11.6-.1ZM1120.1-74.4c4.5-.4,8.6-.6,12.2-.2,3.6.4,2.3,3.5-4.4,4.2-6.6.7.6,1.7,5.3,1.5,4.7-.2,1.7-4.1,5.6-5.4,3.9-1.3,6.4-.5,11.1-2.2,4.7-1.7-2.7-3.3-8.1-3.1-5.4.1-7.2.4-11.9.1-4.6-.3-8.4,1.8-13.1,2.6-9.8,1.7-1.2,2.9,3.2,2.5ZM1155.3-73.2c-3.9,0-13.4,2.2-5.4,3,8,.8,7.4,1.3,10.7,0,3.3-1.2-1.1-3-5.2-3ZM1183.2-71.5c-5.6-1.9-5.7-1.1-10.1-.9-4.3.2-6.1,2.9-3.2,4,2.8,1.2,4.7.7,7.1.3,2.3-.4,2.2-1.1.7-1.7-1.5-.6,8.8-.7,5.5-1.8ZM1206.8-78.4c-4.3.5-4.6,1.3-5,2.7-.4,1.4.6,1.1,5.2.5,4.6-.6,6.7-1.2,9.7-2.8,3-1.6-.6-5.5-.6-6.2s-4.2,2.1-5.4,3.1c-1.2,1,1.2,2.1-3.9,2.7ZM868.9,168c-2.2,6-5.8,8.8-1.5,7.1,4.2-1.7,8.5-6.8,8.2-2.4-.2,4.4-4.3,3.8-3,8.1,1.3,4.3.3,4,7.4,5.5,7.1,1.6,1.3,1,3,5.2,1.7,4.1,2.9,5.4,1.1,6.6-1.8,1.2-7.3-3.8-7.6-1.7-.3,2.1.8,3.7,2.1,6.6,1.3,2.9-.9,4.6-5,6.5-4.1,1.9-.5,3.1,2.6,3,3.1-.2,11.1-1.7,9.8,1.1-1.3,2.8-5.1-.5-7.8,4.1-2.7,4.6-12.7,8.6-7.5,8.3,5.2-.3,4.5-1.7,20-3.9,15.5-2.2,4.8-.2,15-3.3,10.2-3.1,6.9-4,1.3-3-5.6.9,3.7-5.5,2.4-11.5-1.3-6-5-.3-7.4-4.1-2.4-3.8-2.1-4.9,2.5-3.5,4.6,1.4,4.1-.9-4.7-6.5-8.8-5.6-3.4-4.5-7.4-9.2-4-4.7-10.8-4.1-10.8-4.1,0,0,2.9-1.7,4.7-5.2,1.7-3.4,2.1-3.1,3.9-7.3,1.8-4.1-1.8-3.8-6.5-2.8-4.7,1-6.2,1.5-5.2-.4,1-1.8,1.6-2.6,3.8-4.9,2.2-2.3,2.6-3.5-1.4-2.6-4,.9-4.6.8-8,2.4-5.2,2.4-1.6,5.7-3.8,11.7ZM858,182.1c-7.1,2.8-5.1,4.6-3.9,5.6,1.2,1,3.4-.9-3.3,2.9-6.6,3.8-6.7,7.9-3.3,8.8,3.5.8,3-2-.6,4.9-3.7,6.9-6.2,11.6,1.3,9.9,7.5-1.8,9.5-5.6,13.1-6.1,3.6-.5,4.2-3.3,4.2-7.7s-2.4-4.4.4-8c2.8-3.6,3-7.4-2.5-9.1-5.5-1.8-1.1-2.9-5.5-1.1ZM947.1,278.8c-.4,1,.5,3.6-2.4,5.4-2.9,1.8,1.4,3.4,2.3,5.1.9,1.7,2.1-5.8,1.8-9.4-.3-3.6-.5-4.2-1.7-1.1ZM945.7,293c-4.7,2.2-5,3.9-5.5,7.4-.6,3.5,3.8.7,2.7,3.8-1.1,3.1,0,4.7,4.8,1.8,4.9-2.9,2.1-5.6,2.9-9.3.7-3.7,1.4-6.6-4.8-3.7ZM1017.8,330.9c-4.1-.4-5.9,2.2,1.1,3,7,.8,10.2.9,12.8.3,2.6-.6.4-.1-3-2.4-3.4-2.3-5.7-.3-10.9-.8ZM1057,333.1c-5.7-1.2-4.1,5.7,1.7,4.6,5.8-1,3.6.4,6.2-3.9,2.6-4.2-1.9.5-7.9-.8ZM916.1,301.2c-4.6.6-5,2.1-1.4,3.1,3.6.9,3.1-.2,5.1-1.6,2-1.5-1.7-1.7-3.8-1.5ZM637.5,217.3c-2.8,2.2-6.1,5.5-10.1,12.7-4,7.2-3.6,6.4-7.4,10.4-3.9,4-1.9,3.1,10.1,5.4,12,2.3,11,4.1,13.8,3.3,2.8-.8,3.3,1.5,3.3,4s2.6,1,3.9-2.8c1.2-3.9-1.2-10.8-3.7-14.8-2.5-4-3-4-6.9-3-3.9,1-2.6-.9-4-4-1.4-3.1-3.6-.6-.3-5.3,3.3-4.6,4.1-8.2,1.4-6ZM270.2,209.1c0,3.8,4,10.4,7.1,12.5,3,2.1,2.4.9,1-3.6-1.4-4.5-.3-4.5-.9-7.4-.6-2.9-7.2-2.8-7.2-1.5ZM290.4,230c.8.8,3.2,4.3,7.4,7.1,4.2,2.8,5.3,3.2,9.8,4.5,4.4,1.3,6.3-.4,3.5-3-2.9-2.6-.5-2.3-5.6-3.5-5.2-1.2-6.2-.8-8.8-2.4-2.6-1.6-8-4.5-6.2-2.7ZM178.2,187.4c-3.3-.8-4.6-.9-6.9.9-2.3,1.8-2.9,3.3-1.6,5.3,1.2,2,.5.9,3.4-1.1,2.9-2,1.5-2.3,5.2-3.2,3.7-.9,2.9-2.1,2.9-2.1,0,0-.9.6-2.9.1ZM177.1,183c-2.2,1.3-3,2.4-.5,1.9,2.5-.5,2.1-1.9,3.7-1.6,1.6.3,2.1-.3,2.1-.3,0,0-3-1.4-5.4,0ZM113.4,172.7c-3,1.5-5.9-.3-4,.9,1.9,1.1,4.4,2.2,6.4,2,2-.2,3.3-.3,2.6-1.2-.7-1-.9-1.2-1-2.2,0-1.4-1-.9-4,.6ZM1131.6,591.4c-3.5,7.7-10.9,3.9-16.7,9.6-5.9,5.7-5,3.9-.6,11.8,4.4,7.9-3.7,7-5.7,16.3-2,9.2,2.4,7.5,4.8,15.4,2.4,7.9,3.5,5.5,7.9,4.5,4.4-1,7.5-3.1,7.5-3.1,0,0,.7-6.9,3.7-17,2.9-10.1,5-17.5,5.5-24.2.6-6.7,1.1-11.5,2.6-9.4,1.5,2.1,1.6,2.1,1.6-1.2s-1.8-12.4-4.6-14.6c-5-3.8-2.6,4.1-6.1,11.8ZM1136.8,64.4c-4.8,1.1-7.1,4.1-3.6,5.2,3.5,1.2,3.2.5,9-1.5,5.8-2.1-.6-4.8-5.4-3.7ZM1226.9-23.1c-1.6-2.6-3.1.9-20,8.2-16.9,7.4-16.7,1-32.6,13.5-15.8,12.5-12.3,11-13.2,18.5-.9,7.5-4.6,4.3-6.1,11.1-1.5,6.8-9.6,7.2-5.5,12.9,4.1,5.7,9.4,8.9,17.8,11.3,8.5,2.4,10.9-.2,9-1-1.8-.9-8.3-11-7-22.4,1.3-11.5,5.5-9.8,9.2-14,3.7-4.3,13.2-15.4,19.5-19.2,6.1-3.7,22.3-8.8,30.4-11.6.2,0,.5,0,.7-.2,6.4-7.2-.6-4.5-2.2-7ZM1181.3,53.9c-2,.3-2.9.3.7,3.9,3.7,3.6,6.9,6.3,5.7,1.5-1.2-4.8-4.6-5.7-6.4-5.5ZM1241.7,19c-2.7-1.3-4.1-2.6-4.8-.5-.6,2.1,3,4.8,6.6,5.5,3.6.7.7-3.8-1.8-5ZM608.4,234.6c-4.1-2-8.1-3.7-10.8-3.7s.6,2.8,4.8,5.1c4.2,2.3,8.4-.3,6-1.5ZM598.7,251.8c.2-3.4-2.3,3.9.8,5.5,3,1.6,4.6,2,6.5,0,1.9-2,.4-.7-2.3-1.2-2.7-.5-5.2-1.6-5-4.4ZM1803.8,133.8c-5,.5-8.7-.9-8.7-.9,0,0-.3,4-1.8,5.9-1.5,1.9-.4,4-.4,4,0,0-5-2.2-7.9-3.2-2.9-1-5.5-.1-7.2-4.5-1.7-4.4-6.6-3.6-10.5-3.6s-2.8-5-2.8-5h-2.3c-2.4.3-1.9,5.9-5,7.7-3,1.8-12.6,3-12.6,3,0,0,6.1,4.4,7.3,8,1.2,3.6,3.6,7.1,3.6,7.1,0,0-.6,1.7-7.9.3-7.3-1.4-6.9,1.4-14.8,4.6-7.9,3.2-16.8,8.1-19,9.9-2.2,1.8-2.3.8-9.2-.9-6.9-1.7-8.3,1.9-10.1,2.8-1.8.9-1.1-4.1-1.1-4.1,0,0-2.5,0-5.5,1.5-31.4,16-9.8,15.1-10.8,18.4,0,0-3.3,12.5-3.3,12.5-4.6,13.8-7.8,6.6-11.7,17.5-12.4,34.7-19.6-5.3-19.6-14.5s-1.2-13,2.4-14.6c30.9-14.4,2.9-2,31.9-21.8,9.4-6.4,4.3-10.3,6.3-12.1,2.1-1.8,5.4-2.3,5.4-2.3l-5.1-.5c-5.1-.5-5.2.6-9.2,5-4,4.4-7.2,5.1-6.3,1.8.8-3.3,1-6.8-2.1-5-3,1.8-4.3,1.5-9.9,2.7-5.7,1.2-11.7,3.8-16.8,10.3-5.1,6.4-2.2,5.7-.6,7.2,1.6,1.5-8.1,1.2-12.8.8-4.7-.4-2.2-1.3.5-2.2,2.8-.9-4.1-1.7-10.2-3-6.1-1.3-3.7,1-7.3,2.4-3.6,1.4-3.5-1.3-5.2-1.7-1.8-.4-9.8-.9-15.4-1.5-5.7-.6-5.2.4-6.8,2.3-1.5,1.9-12,11.2-16.6,16.4-4.6,5.3-10.2,6.4-15.3,11.3-5.1,4.9-5.9,4.6-1.8,5.4,4.1.8,4.7.4,5.4,4.2.7,3.9,2.6,5.1,7,5.1s3.2,1.2,4-2.2c.8-3.3-1.1-7.2,2.6-4.2,3.7,3,6.8,5.1,7.9,9.4,1.1,4.2-.3,7.3-2.2,14.4-1.9,7.1-2.6,17.2-5.2,22.4-2.6,5.1-4.7,9-7.6,14.6-2.9,5.7-17,19.9-20.1,21.2-3.2,1.3-5.2,1.4-6.8-1.4-1.5-2.8-2.6-2.3-6.2.9-3.6,3.2-5.2,5.1-6.6,10.3-1.4,5.1-4.4,5.1-7.6,9-3.2,3.9-4,3-1.7,7.3,2.3,4.4,6.2,9,6.6,13.2.4,4.2-1.9,10.4-3.4,13.1-1.5,2.7-8.7,4-8.6,2.7.1-1.3.3-7.7,0-11.4-.3-3.7-3-3.7-2.1-4.9,1-1.2,5-3.1,2.1-5.8-2.9-2.7-5-.4-6.2-3.6-1.2-3.2.6-5.8-.1-6.9-.7-1.2-2.8-2.4-7-2.8-4.3-.4-5.2,3.9-6.2.1-1-3.7.4-4.1-1.5-5.6-1.9-1.5-3.6-.5-8.5,3.7-5,4.2-5.9,3.3-10.1,5.1-4.1,1.8-4.1,2.8-3.2,4.2,1,1.4,4.4,7.6,7.3,8.2,2.9.6,5-1.3,9.4-1.3s5.2.6,4.1,2.3c-1.1,1.7-4.1,3.3-9.5,8.7-5.4,5.4-3.7,4.4-1.9,6.6,1.8,2.2,4.4,4.9,6.3,9.1,1.9,4.2,0,5.8-.3,8.2-.3,2.5-.7,6.2,2.9,10,3.6,3.8,1.1,2.6.7,4-.4,1.4-6.5,12.5-9.2,18-2.8,5.5-2.8,6-11.7,12.3-9,6.3-13,6.9-17.8,7.8-4.8.9-9,2.3-11.5,3.3-2.5,1-1.5,3.1-1.8,4.4-.3,1.3-2.6.1-2.2-1.8.4-1.9.1-3.3-1.1-3.9-1.2-.5-5.1-2.1-9.1,1.8-4,3.9-8.8,4.1-10.5,9-1.6,4.9-1.4,3.2.4,5.3,1.8,2.1,10.5,10.4,12.5,14.9,2.1,4.5,2.5,7.8,2.6,12.7.1,4.9-9.9,13.9-14.4,16.8-4.4,3-5.4,5.8-4.7,1.2.7-4.6-1.9-7.3-5.1-10.8-3.2-3.5-12.8-6.3-14.6-6.7-1.8-.4.7-3.2-.6-3.1-1.2.1-4.1-.6-3.7,3.9.4,4.5-2.9,3.1-3.6,7.6-.7,4.5-1.5,9.1,1.4,8.7,2.9-.4,2.3,4,4.6,8.9,2.2,4.9,1.4,2.2,6.9,6.7,5.5,4.5,4.1,3.7,5.4,8.2,1.2,4.5.8,7.1,3.6,11.2,2.7,4.1,2.9,5-1.7,2.7-4.6-2.3-8.3-5.1-10.1-8-1.8-2.8-2.9-10-4-13.6-1.1-3.6-8.6-7.8-11-10.4-2.5-2.6-1-4.6.3-10.5,1.2-5.9-.6-11.6-1-15.2-.4-3.6-3.3-13.7-4.7-17.1-1.4-3.4-.8-3-3,0-2.1,3-3.8,4.8-5.9,4.8s-5.1-.3-4.8-1.7c.3-1.3,2.3-6.5,1.7-8.4-.6-1.9-2.6-8.1-5.5-10.3-2.9-2.2-6.2-5.2-8.1-10.3-1.9-5.1-2.3-3.6-5.9-1-3.6,2.6-11.8,3-15.7,3.3-3.9.3-.7,2.2-1.6,4.2-1,1.9-5.6,4.4-14.9,14.1-9.3,9.7-10.7,10-13.1,11.1-2.4,1-3.9.7-3.8,4.7,0,4,.4,6.1,0,9.7-.5,3.6-1.5,5-2.5,7.3-1,2.3-2.1,6.4-2.4,8.5-.3,2.1-2.4,4.6-5.4,6.8-3,2.2-3,1.8-4.4-1.4-1.4-3.2-8.6-15.5-14.3-27.1-5.8-11.6-4.4-13.6-5-17-.6-3.3-.7-23.4-.4-24.9.1-.9-2.8,2.4-3.6,4-.8,1.6-.8,3.6-4.1,3.9-3.3.3-4,.3-7.1-2.8-3.1-3.1-4.6-4.9-4-4.8.6,0,4.1-.3,6.2-1.4,2.1-1,1.4-2.1,1.4-2.1,0,0-2.2.3-4.9.4-2.7.1-1.5-.6-5-2-3.5-1.4-4.3-1.5-4.9-3.1-.6-1.6-1.5-3.8-2-5-.5-1.2-.9-1.3-1.5-2.8-.6-1.5-2.3.3-6.1.3-3.8,0-2.9.3-7.5,2.1-4.6,1.8-5.3,1.2-10.5,1-5.2-.2-8.8-2.4-11.5-3.3-2.6-.9-3-.5-6.9-1.1-3.9-.6-3-2.5-4-4.2-1-1.6-2.6-2-7.6-1.6-5,.4-5.2.1-8.1-.6-2.9-.8-3.1-1.8-5.5-4.2-2.4-2.4-1.6-.5-3.2-1.8-1.6-1.2-3.1-2.9-4.4-6.3-1.2-3.3-1-4.1-2.4-5.6-1.4-1.5-1.3-1.2-5.8-1.2s-2.4.3-3,.6c-.6.3-1.9,2.3-3.2,3.8-1.2,1.5,1,3.7,2.8,5.8,1.8,2.1.2,1.9,3.1,5.1,2.9,3.2,1.9,2.9,3.9,7.3,2,4.4,3.3,5.5,3.8,6.9.5,1.3.9-.5,1.3-1.7.5-1.2-.2-5.5-.2-5.5,0,0,.9,1.8,1.6,5,.8,3.2.2,3.2.8,5.2.6,2,0,1.7,3.5,1.7s5.6.1,9.4-.8c3.8-.9,5.5-4.4,7.3-5.4,1.8-1,1.8-4.6,3-4.2,1.2.4,0,4.2,1.2,6.8,1.1,2.5,1.4,1.6,4.1,2.7,2.7,1.1,3.4,1.8,6.1,2.8,2.7,1,.9,1.2,2.3,3.9,1.5,2.7,1.4,1.2,2.8,2.1,1.4.9.9.3-.1,3.5-1,3.2-1.2,3.3-3.6,5.9-2.4,2.6-2.4,1.8-2.8,1.7-.4,0-1.1-1.9-1.1-1.9,0,0-1.5,3.1-1.7,6.8-.2,3.6,1.2,2.3-3.2,4.1-4.4,1.8-7,2.5-8.7,3.9-1.7,1.5-1.7,3.4-2.7,4.3-1,.9-2.3,0-5.2,1.1-2.9,1-2.1.8-4.6,2.7-2.5,1.9-.3,1.7-3.4,2.9-3.2,1.2-8.9,4-11.8,4.3-2.9.3-2.3,1.1-3,2.1-.7,1.1-.8,1.6-4.5,2.2-3.7.6-8.3,1.1-10.5,2.2-2.3,1.1-5.6,3.6-8,3.1-2.4-.5-1.7-.6-2.5-2.7-.8-2.1-1.2-3.7-1.6-7.2-.4-3.5-1.6-8.9-3.6-12.2-2-3.4-2-3.6-4.2-7.2-2.2-3.6-3.7-6.6-5.6-7.9-1.9-1.4-2.9-1.5-3.8-2.5-.9-1-.4-4.5-1.3-7.5-1-3-1.6-5.9-3-7.6-1.4-1.7-3.6-3.6-5.6-7.1-2-3.6-2.1-3.9-5-9.4-2.9-5.5-3.9-6.2-5.8-9.8-1.9-3.7-.6-3-1.3-5.1-.7-2.2-2.5,3.6-3.9,4.7-1.4,1.1-2.2.6-3.3-2.7-1.1-3.3-2.1-6.1-3-4.8-.9,1.3-1.6,2.6-.4,6,1.2,3.5,1.8,2.7,3.3,6,1.6,3.3,5.8,11.6,7.6,15,1.7,3.4,1.1,1.8,2.7,6.9,1.6,5.2,2.5,5.8,4.7,8,2.2,2.1,1.8,1,2.8,4.5,1,3.5.6,7.6.7,9.8.1,2.1,1.3,3.3,3.9,5.4,2.6,2.1,1.3,1.4,2.5,3.6,1.2,2.3,2.4,5.5,3.1,7.7.7,2.2,1.5,3.8,3.5,4.8,2,1,2.6,1.1,4.6,1.8,2,.7,1.3,1.2,2.7,3,1.4,1.8,4.1,3.1,5.7,5.9,1.6,2.8.5,2,.4,4.7,0,2.7-1,1.5.2,2.9,1.2,1.4,3.3,2.6,6.8,4.9,3.5,2.3.7.7,3.8.6,3.1,0,3.8-.9,7.1-1.6,3.3-.7,7.7-2,11.8-3,4.1-1,8.2-1.6,10.3-2.3,2.1-.7,2.2,1.6.5,5.2-1.6,3.6-2.4,6.6-3.8,9.5-1.4,2.9-1.9,3.2-2.9,5.5-1,2.4-7.8,12-9.2,15-1.4,3-3.1,5.5-5.2,8-2.1,2.5-8.6,7.1-11.6,9.5-3,2.4-2.3,2.4-4.5,5.3-2.3,2.9-9.1,10.8-11,13.7-1.8,2.8-2.9,3.9-4.3,6.6-1.4,2.8-5.3,6.7-5.5,8.7-.2,2-2.4,2.3-.8,4,1.7,1.8,2.5,2.1,3.1,4.3.6,2.2-1.8,4.8-.3,8.8,1.6,4.1.5,1.2,2.8,4.4,2.3,3.3,2.2,5.3,2.5,10.1.2,4.7.5,9.5-.3,12.5-.7,3.1-1.7,5.1-2.8,7.9-1.1,2.8-6.9,4.7-10.3,6.2-3.4,1.5-3.3.9-4.8,2.8-1.6,1.9-6.1,5.8-7.6,8.7-1.5,2.9-2.7,2.6-2.1,4.5.6,1.8,1.9,4.2,3.4,7.7,1.6,3.4.5,3.2,0,6.1-.4,2.9-.3,2.5-.7,6.1-.4,3.6-4.6,3.7-9.5,5.6-4.8,1.9-3.1.9-3.6,3.6-.5,2.6-.2,7.8-.4,10.8-.2,3.1-1.6,1.8-4.3,5.7-2.6,3.8-3.7,5.6-6.5,10.2-2.8,4.6-2.6,3.9-6.1,6.8-3.5,2.9-6.3,3.6-7.9,6.9-1.6,3.3-3.4,1.1-10.9,3.6-7.6,2.4-2.1,1.2-9.3,2.1-7.2.8-9.8,1.4-13.6,2.1-3.8.7-3.3-.2-5.7-2.8-2.3-2.6-2.7-2.4-3.8-4.5-1.1-2.1-.3-2.7-.6-6.5-.3-3.9-.6-4-2.1-6.4-1.4-2.4-1.3-2.8-2.9-6.6-1.6-3.8-2.3-4.9-4-7.4-1.7-2.6-2.3-1.8-3.9-3.4-1.6-1.7-1.7-3.1-2-5.5-.4-2.4-.9-7.9-1.7-13.8-.8-5.9,0-2.7-1-5.2-.9-2.5-2-5.5-3.6-8.8-1.6-3.3-1-2.4-3.4-6.5-2.4-4.1-2.2-3.5-3.7-7.1-1.5-3.6-1.7-2-1.8-3.3,0-1.4.8-3.9.9-6.2,0-2.4.9-5.2,1.5-8.9.6-3.7-.8-3.6.7-6.2,1.6-2.5,3.2-4.8,4.2-7.7,1-2.9.9-3,.9-6.6s-.4-3.3-1.5-6.4c-1.1-3-1.5-6.6-2.9-11.5-1.3-4.9-1.3-4.7-1.5-6.6-.2-1.9-1.1-6.1-2-8.7-.9-2.6-1.4-1.5-3.4-3.2-2-1.7-.7-.9-2.4-2.8-1.7-1.8-1.4-2.4-3.1-4.5-1.7-2-1.9-2.1-3.3-4.4-1.4-2.3-.6-.9-.4-4.7.2-3.8,1.3-11.1,2-15.3.7-4.2.8-4-.8-5.7-1.6-1.8-2.8-4.3-4-4.7-1.2-.4-4.2.4-8.6.3-4.4,0-4.2-1.1-6.1-3.3-1.9-2.2-4.4-5.2-5.3-6-.9-.8-2.4-.8-9.8-.2-7.5.6-2.9.7-7.9,1.5-5,.8-6.9,3.4-10.7,4.7-3.8,1.3-4.9,1-11.6-.3-6.7-1.3-10.1,1.5-13.5,3-3.4,1.5-5.1.8-7.5-.9-2.5-1.7-4-3.1-7.8-5-3.8-1.9-2.9-2.9-6.7-4.8-3.8-1.8-2.5-1.9-5.7-4.9-3.1-3-3.4-6-5.5-9-2.2-3.1-4-7.4-6.9-10.7-2.9-3.3-5.7-9.8-7.2-11.8-1.4-2-2.5-2.1-2.5-3.1,0-.9,2.8-6.5,4-9.3,1.2-2.9,1.5-2.5,2-4.3.5-1.8-.7-7-1.8-9.8-1.1-2.8-2.3-8.8-3.2-11.6-.9-2.8.4-2.8,1.5-4.4,1.1-1.6,3.6-4.9,6.2-9.8,2.6-4.9,4.1-7.3,5.5-9.6,1.4-2.3,4.5-9.2,6.6-11.1,2.1-1.9,7.4-5.7,9.6-6.8,2.3-1.2,4.1-1.8,4.5-2.8.4-1,1.3-9.5,2-13.1.6-3.6-.2-5.5,2.3-6.9,2.6-1.4,6.7-3.9,8.9-5.1,2.2-1.2,2.5-3,3.6-5.6,1.1-2.6,1.6-5.9,3.2-7,1.6-1.1,1.2.5,3.4,1.9,2.2,1.5,2.5,1.5,3.5,1.8,1,.3,1.9-.8,4.5-.9,2.5,0,2.8.3,4.3,1.1,1.5.8.7.8,5-1.8,4.3-2.7,7.8-4.3,13.4-6.4,5.7-2.1,9.5-3.3,12.1-3.6,2.6-.3,1.3,0,4.2,1.2,2.9,1.2,3.1,1.7,3.7.8.6-.9,2.5-3.3,3.8-3.2,1.2,0,2.7.6,5.8,1.2,3.2.6,4.5.3,5.8-.4,1.3-.7,2.9-2.1,3.3-2.1s3,.9,5.2,1.8c2.2.8,2.3.9,1.8,1.5-.5.6-1.1,1.2-2.2,3.6-1.1,2.4-.6,1.1.5,3.6,1,2.5,1.7,2.4,1.3,4.2-.5,1.8-2.5,3.6-4,5.3-1.5,1.8-1.1,2.1,2.6,4.2,3.7,2.1,2.9,1.8,7,3.6,4.2,1.9,4.4,1.2,9.2,2.7,4.9,1.5,4.3,1.6,6,3.6,1.7,2,1.8,3.9,4.7,4.9,2.9,1,6.1,1,7.8,2.1,1.7,1.1,3.1,2.6,5.4,3,2.3.4,2.3.7,3.4-.9,1.1-1.7,2-3.2,1.6-4-.4-.9-1.7-2.2-1.4-3,.3-.8,2.2-4.1,2.8-5,.6-1,2.1-1.2,5.8-1.4,3.6-.2,6.2-.7,6.8,1.5.6,2.1.5,1.2,3.3,2.3,2.8,1.2,3.1,1.2,5.4,2.1,2.3.9,1.2,2.2,2.3,2.1,1.2,0,3.1-.3,5.3.4,2.2.6,6.3,2.6,10.5,2.7,4.3.2,5.9-1.1,6.6-1.4.6-.3,3.7-4,5.5-1.4,1.8,2.6,4.1,2.6,8.6,2.4,4.5-.3,4.6-.9,5.6-2.1,1-1.2,3.7-5.5,4.6-8.5.9-3,3.3-9.5,3.9-12.5.6-3,0-5.3-.3-7-.2-1.8.2-3,.9-4.9.7-2-2.2-.8-3.3-.4-1.1.4-1.5-.6-2.5-.9-1.1-.3-2.2-.6-2.9,1.4-.8,2-.4,3-4.6,2.7-4.2-.2-3.4-.5-4.8-2-1.4-1.5-3.7-1.9-5.6-2.4-1.9-.6-2.1-.5-2.2.7-.1,1.2-.2,2-1.6,2.5-1.4.5-4.5,0-7.1-1.3-2.6-1.2-3.4-1.8-6-4.4-2.6-2.5-2.2-2.5-3.3-6.4-1.1-3.9-1.1-7.2-.6-8.4.4-1.2,1.2-1.5-.8-.9-2,.6-3.3.9-2-2,1.3-3,2.6-3.1,4-3.5,1.4-.4,3.5-.4,6.1-.6,2.6-.2,4.6-1.5,5.6-1.9.9-.4,2.8-1,1.8-1.3-1-.3-3.9-.6-3.4-1.4.5-.8.8-.8,2.4-.9,1.6-.2,4-.3,6.1-.4,2.1-.1,3.3.3,4-1,.7-1.2,1.6-3.1,3.2-4.1,1.6-1,3.4-.5,7.6-.6,4.2-.2,3.6.9,5,1.8,1.4,1,2.3.5,4.1.9,1.8.3.7,1.4,2.1,2,1.4.6,3.9,1.1,7,2.1,3.1,1,1.1.6,4.8.6s3.6,0,6.6-.5c3-.5,4.2-1.6,6.3-3.1,2.1-1.5.6-4.8-.1-7.3-.8-2.5-4.1-4.1-5.6-5.3-1.5-1.2-4.8-4.8-6.5-6.3-1.8-1.5-3.8-1.9-5.7-3-1.9-1.1-5.4-2.8-5.7-4.2-.3-1.4.7-1.4,3.6-2.1,2.9-.7,1.9-1.3,2.5-2.8.6-1.5.8-1.5,3.1-2.3,2.3-.9-2.7-2.7-3.4-3.6-.7-1,1.6-.7,3.9-1.2,2.3-.6,2.5-1.7,2.9-2.7.3-1,.2-1.5-2.5-1.4-2.8,0-6.3,1.2-10.9,2.4-4.6,1.2-2.5,1.3-5.3,3.5-2.8,2.2-3,1.2-2.6,2.4.4,1.2.5,2.4,3.4,3.9,2.9,1.5,1.6,1.5,2.4,1.8.8.2,2.7.5,1.8.8-.9.2-1.7,1.6-2.9,1.6s-1.8,1.3-4,2.6c-2.2,1.2-3.2,1.4-4.8,1.7-1.6.3-2.8-.3-2.5-3,.2-2.7-.8-.9-2.5-1.5-1.7-.6-2.3-1.4-2.3-1.4,0,0,1.7-.6,3.4-1.7,1.7-1.1,2.5-1.7,3.3-3.8.8-2.1-1.8-.9-3.8-1.2-1.9-.3-1.4-.4-3.3-.7-1.9-.3-2.6-1.8-2.6-1.8,0,0,.9.3,2.5.2,1.6-.2,1.2-.6,1.8-1,.6-.4,1.1-.8.6-.8s-2.4.2-3.8.1c-1.3,0-2.1-.3-4.1,0-1.9.3-1.2,1-2.5,1.9-1.4.9-1.4,1.2-2.2,2.5-.7,1.3-1,1.1-1.5,2-.5.9-.5,3-.5,4.5s-.4,1.9-1.2,3.1c-.9,1.2-.9.7-2.3,1.4-1.5.7-.5,1.2-.7,2.7-.2,1.5-.7,2-.8,3.9-.1,1.9-.9,2-2,3.3-1.2,1.3-1.8,1.3-1.9,2.7,0,1.4-.3,2,0,4.6.3,2.7,1.1,2,3.1,4.7,2.1,2.7,3.2,1.7,2.4,3-.7,1.4-.6.9-3.1.6-2.5-.3-2.9,0-4.8,1.8-1.8,1.8-2.2,2.7-3.2,3.4-1,.6-.6-1.3-1-2.2-.4-.9-4.6-1.2-7.5-2.1-2.9-.9-3.7-1.4-4.4-1.4s-1.9-.2-4.9,1.5c-3,1.7-2.3,2.6-2.1,4.8.2,2.2,2.6,2.6,1.9,7.8-.7,5.1,2.6,2.8,3.9,5.9,1.4,3.1.1,2.9-.7,3.3-.8.4-1.7,3.1-2.3,5.7-.6,2.6,0,2.9-.7,2.8-.8-.1-1.7.4-3.1-1.7-1.4-2.1-2.6-.1-2.8-1.3-.2-1.2-2-3.3-1.3-6.1.7-2.8,1.8-3.1-.7-4.6-2.5-1.5-1.9-1.7-3-4.7-1.2-3-1.4-3.6-3.7-6.4-2.3-2.8-2.1-2-1.5-4.8.6-2.8,1.1-6.4-.3-8.3-1.4-1.9-7.1-7.3-11.8-9.8-4.7-2.5-5.7-.6-7.7-4.6-2.1-4-3-8.2-6.5-10.6-3.4-2.4-1.7-2.6-5-1.4-3.3,1.2-3.4,1.7-3.1,2.7.3,1,1,2.3.5,4.9-.5,2.6-1.2,1.8,2.3,3.8,3.5,2.1,2,1.6,3.7,5.4,1.7,3.8,2,4.5,3.4,6,1.4,1.5,1.9,2.9,5.3,3.7,3.4.8,2.9-.2,3.8.6.9.8-2.4,1.2-1.8,1.5.6.4,1.4,1.5,4.3,3.3,2.9,1.8,5.9,3.7,6.6,5.1.8,1.4,3.3,6.7-.4,2.8-3.7-3.9-3.8-2.1-4.8.6-1,2.7,1,4.8.8,6.7-.1,2-1.9,1.2-3,2.8-1.2,1.6-1.8,3.5-3.2,4.6-1.4,1-1-1.2-1.7-1.2s-1,1-2,2.8c-1,1.9,0,2.6.4,5.1.4,2.5,1.1,2.7-1.6,2.6-2.7-.1-2.1-2.6-4.5-4.3-2.5-1.7-3.9-1.1-6-2.4-2.1-1.3.9-1.6,6.1-2.2,5.2-.6,5.8-1.2,7.4-2.4,1.6-1.2,1-1.5,2.8-4,1.7-2.4,0-3.4-1.2-6.4-1.2-2.9-3.4-4.3-4.1-4.9-.8-.6-2.5-2.3-4-4-1.5-1.7-3.1-1.9-5.7-2.6-2.6-.6-2.1-3-3.6-3.7-1.4-.7-2.9-2.8-6.2-5.8-3.3-3.1-2.1-5.4-3.6-8.1-1.5-2.7-3-4.8-6.3-4.8s-5.8,2.3-9.1,5.5c-3.3,3.2-2.6,4.8-6.5,2.3-3.9-2.4-5.2-2.2-8,.1-2.7,2.3-3.3,4.6-3.3,9.2s-3.3,2.7-5.9,4c-2.6,1.3-5,4.5-9,12.1-4,7.6.3,4-.6,6.6-.8,2.6.3,4.6-3.4,8-3.7,3.3-2.1-.4-4.3,2.3-2.2,2.7-5.3,4.9-10.5,4.2-5.2-.6-3.7,1.4-7,2.2-3.3.8-5.1,1.9-4.3-1.8.8-3.7.1-3.2-6.2-3-6.4.3-8.6,1.9-8,1,.6-.9.8-2.4,1.5-6,.7-3.6,1.7-4.8.7-4.8s-3,.5-1.5-5.9c1.5-6.4,2.1-7.6,1.4-11.3-.7-3.7.3-8.7-.5-10.9-.8-2.2,1.7-4.4.5-5.5-1.1-1.2-2.3-2.7-1.5-2.7s4.3.1,8.7.9c4.4.8,9-.6,11.6-.4,2.6.3,8.1,1.4,13.7,2.3,5.5.9,5.4-.8,4.8-8.9-.6-8.1.4-11.8-1.2-13.5-1.7-1.7-3.4-1.5-5.2-3.7-1.8-2.2-.4-5.4-4.3-6.6-3.9-1.2-8.2-.3-6.1-1,2.1-.8,2.9-1,.7-2.7-2.2-1.7-2.8-3.5-1.1-3.7,1.7-.3,6.3-.3,6.3-.3,0,0,.4,2.3,2.9,1.3,2.5-1,5.7-2.1,5-3.7-.7-1.7-1.9-3.7-1.5-3.7s1.4,2.3,6.6,2.3,4.8-.8,4.4-3c-.4-2.2,3.5-2.1,6.1-3.9,2.6-1.8-1-3.9-.4-5.5.5-1.7,3.6-2.7,9-3.1,5.4-.4,4.4-1.3,3.9-1.9-.6-.6.1-3.3.5-6.8.4-3.5-.4-4.6,2.4-6.3,2.8-1.7,1.9-1,7.6-1.5,5.7-.5,2.2-1.8,3.2-2.1,1-.3,7.7-1.9,9-2.5,1.2-.5,1.1-.4,0-2.8-1.1-2.4-2.6-3.8-3.9-15.2-1.2-11.3-1-11.3,5.9-13.4,6.9-2.1,5.4-1.4,4.8,4.9-.5,6.3-3.6,6.3-4.3,10.9-.7,4.6-.1,7.4,2.8,12.3,2.9,4.9,2.6,2.4,8.8,2.4s4.8,1.5,9,3c4.1,1.4,2.8-2.6,6.8-4,4-1.4,3.2.9,12.5-.5,3.6-.5,4.8-.7,5.1-.7-.3,0-1.3,0-.2-.6,2.2-1.3,2.8-3.6,5.9-4,3.2-.4,5.4.9,5.2-4-.1-4.9-1.9-4.1-1.4-7.8.6-3.7.7-2.1,1-5,.3-3-.4-3.5,3.6-4.5,4-1,1.2,3.6,6.1,4.6,4.8,1,4.1,1.8,5-1.9.8-3.7,3.5-8.6,1.1-8.4-2.3.3-2.9-.1-5.2-3.6-2.3-3.5-3.7-4.2-2.2-4.2s6.6-1.4,13.9-1.2c7.3.3,9.4.9,9.8.1.4-.8-1.2-1.5,1.2-3.1,2.5-1.5,10.6.8,9.4-.6-1.2-1.4-8.4-3.3-13.2-2.6-4.8.8-16.6,2.2-18.4,2.1-1.8-.1-5.1-1.4-5.9-2.3-.8-.9-3.5-1.5-3.5-5.8s1.5-5.9-1-10c-2.5-4.1,4.5-7.6,9.4-11.9,4.8-4.4,3.6-8,6.5-8.2,2.9-.3,4-1.8,2.6-3.2-1.4-1.4-6.5-6.3-9-6.8-2.5-.5-6.2-3.3-10.1,3.3-3.9,6.7.3,7.3,1,10.8.7,3.5-5.4,6-9.9,9.2-4.5,3.2-6.2,2.4-7.6,10.7-1.4,8.2-2.8,8.5,2.3,11.3,5.1,2.8,6.1,4.2,3.7,6.7-2.3,2.5-7.3,2.3-10.4,8.1-3,5.8-1.8,8.6-3,11.2-1.2,2.6-5.1,3.7-6.2,6.3-1.1,2.6-1.1,7.4-5.8,6.7-4.7-.8-2.1-7.1-4.1-10.3-2.1-3.2-3.7-5.9-6.2-9.9-2.5-4-.5-7.8-2.9-9.9-2.3-2.1-2.9-6.2-2.9-6.2l-.8,1.9c-.8,1.9-.4,3.1-5.1,8.9-4.7,5.8-11.7,6.2-15.2,4.7-3.4-1.4-2.9-4.7-2.9-9s-.8-9.9-.1-16.6c.7-6.7,2.6-6.2,9.9-10.5,7.3-4.4,7.4-4.1,9.2-6.9,1.8-2.8,7-6.8,10.1-9.4,3-2.6,8.3-12.3,11-19.3,2.8-6.9,7.9-11.2,12.8-18.6,5-7.4,13.8-14,25.1-18.8,11.3-4.8,9.4-5.3,12-9,2.6-3.7,3.7-1.5,8.1-2.4,4.4-.9,3.7,0-.7,4.4-4.4,4.4-6.3,9-2.6,5.5,3.7-3.5,6.6-7.6,12.4-7.3,5.8.3,3.5,0,9.1,2.6,5.7,2.6,6.6,2.8,3.5,4.9-3.2,2.1-8.6,1.5-8.6,1.5,0,0,1.8,4.2,7,4.9,5.2.6,8.1-4.1,11.6-2.3,3.5,1.8,4.4,3.1-.3,2.7-4.7-.4-6.1,2.6-.3,4.6,5.8,2.1,6.3,2.3,13.9,3.3,7.6,1,10.9,6.6,16.7,9,5.8,2.4,12.6.4,10.6,5.7-1.9,5.3,1.5,10.4-8.6,12.8-10.1,2.4-9.8-.8-18.2-3.3-8.4-2.6-14.3-5.1-14.3-5.1,0,0,2.2,3,6.1,6.6,3.9,3.6,4.3,6.9,3.9,13.5-.4,6.6-2.2,8.4,4.4,11.6,6.6,3.2,5.7,2.3,7.7,1.8,2.1-.5,5.5-1.2,4.7-2.2-.8-1-1.5-2.9-3.7-4-2.2-1-2.3-3.5-.1-4.6,2.2-1.2,4.3,1,9.1.8,4.8-.3,0-1.8,2.3-4.2,2.4-2.4,2.5-6.6,8.1-8.7,5.7-2.2,11.7,1,13.2-1.4,1.5-2.4,3.2-5.3,0-9-3.2-3.7-5.7-5-3.7-6.8,1.9-1.8,5.8-6.6,7.6-3.9,1.8,2.7,6.3,5.7.6,5.1-5.8-.5-1.8,8.6,3.4,8.1,5.2-.5,4.8-2.2,9.1-4.2,4.3-2.1,12.7-8.9,18.6-10.9,5.9-2.1,7.2-1.5,9.5-.5,2.3,1,2.3,3,8.8,1.7,6.5-1.3,8.4-2.8,14.5-3.9,6.1-1-.4,2.2,2.3,3.1,2.8.9,3,1.7,5.1.3,2.1-1.4,8.7-3.7,5.7-6-3-2.3-5.3-3.9-5.3-3.9,0,0,2.2-4.9,8-4.5,5.8.4,14.6,5.8,20.3,9.6,5.7,3.9,12.6,12.1,12.6,12.1,0,0,2.5-4.2.4-11.3-2.1-7.1-7.3-5.4-7.3-12.1s-4.8-4.9-3.2-9.6c1.7-4.7,6.3-6.6,7.6-12.6,1.2-6,2.3-11,6.6-11s13.5,1.3,13.5,1.3c0,0,0,5.5-3.5,13.7-3.4,8.2,1.8,9.1,1,19.1-.8,10-1,11.3,1.4,13.6,2.3,2.3,6.8,5.1,5.1,9.5-1.7,4.4-2.5,7.1-8.7,9.5-6.2,2.4-14.1,1-11.2,3,2.9,1.9,6.6,3.6,10.8,4.2,4.1.6,2.1-.3,5.4-3,3.3-2.7,10.8-8.1,10.5-10.7-.3-2.6-4.3-6.6-1.5-8.5,2.8-1.9,3.9-4.9,8.1-2.4,4.3,2.4,8.4,11.6,8.4,11.2s-.8-9-5.9-14.1c-5.1-5.1-13.5-.3-13.5-4.8s2.3-10.7,1.8-15.6c-.6-4.9-2.5-9.8.7-14,3.2-4.2,3.3-7.6,3.3-7.6,0,0,1.4,4,.3,9-1.1,5,.6,8,2.9,8s12.8.1,7.2-1.5c-5.7-1.7-7.3-3.2-1.7-6.3,5.7-3.1,5.4-1,13.7.9,8.3,1.9,10.2,3.3,13,3.2,2.8-.1,2.3-.4,1.4-2.8-1-2.4-2.2-4.1-4.8-5.8-2.6-1.7-4.4.4-5.2-2.2-.8-2.6-2.3-9-3-11.4-.7-2.4,2.1-.5,6.5-.5s16.4-.6,25.7-.9c9.2-.3.1-9.9-.6-16.7-.7-6.8,17.1-7.1,25.8-8.3,8.7-1.3,18.8-.9,35-4.8,16.3-3.9,5.8-3.2,8.1-7.8,2.4-4.6,6.3-5.4,11.2-5.4s9.2.9,7.5,1.5c-1.8.6-7.2,3.3,1.2,5.1,8.4,1.8,6.2,1.7,1.8,3.2-4.4,1.5-.7,4.4,7.9,4.4s3.5-.8,2.1-3.6c-1.4-2.8,1.2-1.8,8.3-.6,7,1.2,9.8,2.3,13.7,5.9,3.9,3.6,4.5,2.7,5.9,7.7,1.4,5-.1,4.2-6.1,8.9-5.9,4.6-9.5,4.6-18.1,10-8.6,5.4-6.5,8.2-11.2,11.8-4.7,3.6-3.5,2.6,6.5,0,9.9-2.6,15.3-4.2,20.4-3.7,5.1.5,7.6,2.4,11.4,2.4s-.3.6,11.9.6,10.3,0,5.9,3.5c-4.4,3.5.8,4.5,6.2,4.5s12,.3,17-.5c5-.8.7-4.5,6.6-4.8,5.9-.3,7.9-.8,14.2-.8s4.4,2.6,6.6,4.9c2.2,2.3,5.2,3.9,3.2,8.5-2.1,4.6-3.2,4.7-1.9,11,1.2,6.3,4.4,7.2,8.3,8.4,3.9,1.2,3.9-5.6,7.6-8,3.7-2.3,4.6,4.6,8.8,3.6,4.3-1,9.1-.5,12.8.6,3.7,1.2,6.9,1.8,12.1.6,5.2-1.2,3.6-3.2,1.8-6.4-1.8-3.2-1.9-3,1.4-6.3,3.3-3.3,5.5-1.7,16.3,1.2,10.8,2.8,7.3,2.8,13.4,4.5,6.1,1.7,4.1,1.3,13.4,5.5,9.2,4.2,7.5,9.2,11.7,11.9,4.3,2.7,4.6,0,13.1-.8,8.5-.8,8.4,1,17.8,3.5,9.4,2.4,6.9,5.5,6.9,8.2s-2.6,4.8,3.2,6c5.8,1.3,8.1,2.4,13.1,1.2,5-1.3.6,1.3,11.6,1.4,11,.1,7.3-1.3,10.6,1,3.3,2.3,4.1,6.9,9.5,6.4,5.4-.5,5-.4,2.8-5.1-2.2-4.8-3.6-5.5-.4-5.4,3.2.1,9.7,1.5,21.7,3.5,12,1.9,12.4,4.1,22.2,10.3,9.8,6.2,12.5,6.7,19.7,12.2,2.7,2.1,3.3,2.7,3.3,2.9.2,0,.9.2,3.7,1.5,7.7,3.6,6.3,2.4,13,5.7,6.6,3.2,12.3,7.7,12.3,7.7,0,0,.4.6-4.5,1.2ZM1160.1,264.4s-.7,1,3.1-2.1c3.9-3.1-1.8-.1-4-.8-2.2-.6-2.9-1.7-2.2-4.5.7-2.8-.3-2.8-2.6-6.6,0,0-1.2-.8-3.9.8-2.6,1.5-4.1-1.5-7.3-.4-3.2,1.2-6.6.6-8.6,5.4-1.9,4.8-4.1,1.7-4.8,5.5-.7,3.9-6.6,5.9-6.6,5.9,0,0,2.4,2.3,4.1,4.5,1.8,2.2.6.8,2.3,8,1.8,7.2,3,6.6,5.5,7.6,2.5,1,6.3,3.5,6.3,3.5,0,0-2.3-1.4-2.3,2.4s-3.7,6.6-3.3,12.2c.4,5.7-5.1,10.9-.7,11.4,4.4.5,3,2.4,7.9,3.7,4.8,1.3,7.6,2.2,14.6,2.2s3.2-2.7,2.2-6.7c-1-4-1.5-6.6-1.8-10.9-.3-4.4-1.9-3.2-3-5.9-1.1-2.7.6-4.2,3.9-4.2s3.7-.1,1.9-3.1c-1.8-3-.7-4.1-2.9-5.4-2.2-1.3-3.2,4.2-3.2,4.2,0,0-1.4-1.3-.8-6.7.6-5.4,1-2.8-.7-3.9-1.7-1-2.6.3-4.8-3.3-2.2-3.6-.3-2.8-2.9-7.2-2.6-4.4-1.2-2.1,1.6-2.1s1.4-.6,0-2.1c-1.4-1.4-2.3-3.6,1.4-3.3,3.7.3,8.6,1,10.3,1.2,1.8.1,1.2.6,1.2.6ZM645.4,66.4c-1.3,2.2,2.2,5,4.6,4.1,2.5-.9,3.3,0,4.7-1,1.4-1.1,1.5-2.8-.1-4.4-1.7-1.6-1-2.6-1.3-2.8-3.2-1.9-6.7,1.9-7.9,4.1ZM1327.4-75.2c-3.7.1-7.9.3-4.4,1.4,3.5,1.2,2.1,6.9,8.7,3.7,6.6-3.2,5.2-3.5,9.8-5.4,4.5-1.9,1.9-1-3.6-2.4-3.5-.9-6.8,2.6-10.5,2.7Z" fill="#e6e7e8" opacity=".4"/>
    </g>
  </g>
</svg>