<?xml version="1.0" encoding="UTF-8"?>
<svg id="Layer_1" xmlns="http://www.w3.org/2000/svg" viewBox="0 0 283.1 500">
  <path d="M141.55,5c36.47,0,70.77,14.2,96.56,40,25.79,25.79,40,60.08,40,96.56s-14.2,70.77-40,96.56c-25.79,25.79-60.08,40-96.56,40s-70.77-14.2-96.56-40c-25.79-25.79-40-60.08-40-96.56s14.2-70.77,40-96.56C70.79,19.2,105.08,5,141.55,5M141.55,0C63.38,0,0,63.37,0,141.55s63.38,141.55,141.55,141.55,141.55-63.38,141.55-141.55S219.73,0,141.55,0h0Z" fill="#231f20"/>
  <circle cx="141.55" cy="281.39" r="16.41" fill="#231f20"/>
  <line x1="141.55" y1="283.1" x2="141.55" y2="500" fill="none" stroke="#231f20" stroke-miterlimit="10" stroke-width="3"/>
</svg>