<?xml version="1.0" encoding="UTF-8"?>
<svg xmlns="http://www.w3.org/2000/svg" version="1.1" xmlns:xlink="http://www.w3.org/1999/xlink" viewBox="0 0 500 230">
  <defs>
    <style>
      .cls-1 {
        opacity: .2;
      }

      .cls-1, .cls-2, .cls-3 {
        fill: #fff;
      }

      .cls-4, .cls-5 {
        fill: #f2f2f2;
      }

      .cls-4, .cls-6, .cls-7, .cls-8 {
        display: none;
      }

      .cls-9, .cls-7 {
        fill: none;
      }

      .cls-10 {
        fill: #d2a3aa;
      }

      .cls-10, .cls-11 {
        mix-blend-mode: multiply;
      }

      .cls-12 {
        isolation: isolate;
      }

      .cls-13 {
        fill: #e59c97;
      }

      .cls-14 {
        fill: #bd2846;
      }

      .cls-3 {
        opacity: .3;
      }

      .cls-15 {
        fill: #fdce0b;
      }

      .cls-11 {
        fill: #a93841;
        opacity: .5;
      }

      .cls-16 {
        fill: #d71344;
      }

      .cls-17 {
        fill: #f16680;
      }

      .cls-8 {
        font-family: Kalameh-Regular, Kalameh;
        font-size: 71px;
        glyph-orientation-vertical: 90deg;
        text-orientation: sideways-right;
      }

      .cls-18 {
        glyph-orientation-vertical: 0deg;
        text-orientation: upright;
        writing-mode: tb;
      }
    </style>
    <path id="path" d="M460,115c0,116-94,210-210,210S40,231,40,115,134-95,250-95,460-1,460,115Z"/>
  </defs>
  <!-- Generator: Adobe Illustrator 28.6.0, SVG Export Plug-In . SVG Version: 1.2.0 Build 709)  -->
  <g class="cls-12">
    <g id="Layer_2" class="cls-6">
      <rect class="cls-9" y="-135" width="500" height="500"/>
      <image width="1920" height="640" transform="translate(-1327.3 -222.9) scale(.5)" xlink:href="../banner 01 copy.jpg"/>
      <image width="1920" height="640" transform="translate(-1327 495) scale(.5)" xlink:href="../banner 2 copy.jpg"/>
      <image width="1920" height="640" transform="translate(-1327 140) scale(.5)" xlink:href="../banner 4 copy.jpg"/>
      <image width="1920" height="640" transform="translate(-1327.3 -935.9) scale(.5)" xlink:href="../banner 5 copy.jpg"/>
      <image width="1920" height="640" transform="translate(-1327 -587) scale(.5)" xlink:href="../banner 6 copy.jpg"/>
    </g>
    <g id="Layer_1">
      <g class="cls-6">
        <g>
          <circle class="cls-14" cx="250" cy="115" r="248"/>
          <path class="cls-11" d="M250-133C113-133,2-22,2,115s111,248,248,248,248-111,248-248-111-248-248-248ZM250,358.9C115.3,358.9,6.1,249.7,6.1,115s109.2-243.9,243.9-243.9S493.9-19.7,493.9,115s-109.2,243.9-243.9,243.9Z"/>
          <circle class="cls-10" cx="250" cy="115" r="203.5"/>
          <circle class="cls-17" cx="250" cy="115" r="198.8" transform="translate(-8.1 210.5) rotate(-45)"/>
          <g>
            <g>
              <path class="cls-16" d="M218.2,211.5c-17.4,10.1-31.7,1.8-31.7-18.3v-125.5c0-20.1,14.2-28.3,31.7-18.3l108.7,62.8c17.4,10.1,17.4,26.5,0,36.5l-108.7,62.8Z"/>
              <path class="cls-16" d="M218.2,211.5c-17.4,10.1-31.7,1.8-31.7-18.3v-125.5c0-20.1,14.2-28.3,31.7-18.3l108.7,62.8c17.4,10.1,17.4,26.5,0,36.5l-108.7,62.8Z"/>
            </g>
            <path class="cls-16" d="M339.9,119.4v12l-36.3,22.7s-43,.9-41.6-4c1.4-5,0-34.8,0-34.8l78,4.1Z"/>
            <g>
              <path class="cls-13" d="M218.2,197.6c-17.4,10-31.7,1.8-31.7-18.3V53.8c0-20.1,14.2-28.3,31.7-18.3l108.7,62.8c17.4,10.1,17.4,26.5,0,36.5l-108.7,62.8Z"/>
              <path class="cls-2" d="M218.2,197.6c-17.4,10-31.7,1.8-31.7-18.3V53.8c0-20.1,14.2-28.3,31.7-18.3l108.7,62.8c17.4,10.1,17.4,26.5,0,36.5l-108.7,62.8Z"/>
            </g>
          </g>
          <path class="cls-1" d="M250-65.5c-99.7,0-180.5,80.8-180.5,180.5s.3,12.3.9,18.3c46.4,31.7,109.7,51.2,179.6,51.2s133.2-19.5,179.6-51.2c.6-6,.9-12.1.9-18.3,0-99.7-80.8-180.5-180.5-180.5Z"/>
          <path class="cls-3" d="M250-50.4c93.8,0,170.5,75.1,172.9,168.4,0-1,0-2,0-3,0-95.4-77.6-173-173-173S77,19.6,77,115s0,2,0,3c2.4-93.3,79.1-168.4,172.9-168.4Z"/>
          <path class="cls-1" d="M250-125C117.5-125,10-17.5,10,115s.8,23.1,2.4,34.3c11.1,6.3,22.9,12,35.2,17.3-4.2-16.5-6.4-33.8-6.4-51.6C41.3-.3,134.7-93.7,250-93.7S458.7-.3,458.7,115s-.7,19.4-2,28.9c11.9-7.2,23-15,33.1-23.3,0-1.8,0-3.7,0-5.5,0-132.5-107.4-240-240-240Z"/>
        </g>
      </g>
      <g class="cls-6">
        <rect class="cls-5" x="6" y="191.1" width="488" height="81.9" rx="40.9" ry="40.9"/>
        <rect class="cls-5" x="6" y="74.1" width="488" height="81.9" rx="40.9" ry="40.9"/>
        <rect class="cls-5" x="6" y="-43" width="488" height="81.9" rx="40.9" ry="40.9"/>
      </g>
      <path class="cls-4" d="M488.6,318.5l-145.2-146.8c56.6-73.8,51.6-180.2-15.6-248.2h0c-73.4-74.2-193.4-74.8-267.6-1.5C24.2-42.3,4.2,5.1,4,55.6c-.3,50.5,19.2,98.2,54.7,134.1,35.5,35.9,83,55.9,133.5,56.2.4,0,.7,0,1.1,0,41.4,0,80.9-13.3,113.5-37.8l145.2,146.8c5,5.1,11.7,7.7,18.3,7.7s13.1-2.5,18.1-7.5c10.1-10,10.2-26.4.2-36.5ZM193.2,194.3c-.3,0-.5,0-.8,0-36.8-.2-71.2-14.7-97.1-40.8-25.9-26.1-40-60.8-39.8-97.5s14.7-71.2,40.8-97.1c26.8-26.5,61.8-39.7,96.8-39.7s71,13.6,97.8,40.8c53.4,54,52.9,141.3-1.1,194.6-26,25.7-60.3,39.8-96.8,39.8Z"/>
      <text class="cls-18">
        <textPath startOffset="3300%" xlink:href="#path"><tspan class="cls-8"><tspan x="0" y="0" xml:space="preserve">ASAFLIFE     ASAFLIFE    ASAFLIFE     </tspan></tspan>
        </textPath></text>
      <g>
        <path class="cls-15" d="M106.8,211.8c7.8,3.1,15.9,5,24,5.4l.6-10c-7-.4-14-2-20.8-4.7l-3.7,9.3Z"/>
        <path class="cls-15" d="M152.7,205l2.6,9.7c7.4-2,15-5.1,22.4-9.4l-5-8.7c-6.8,3.9-13.3,6.6-20,8.4Z"/>
        <path class="cls-15" d="M190.9,183.9l6.4,7.7c5.4-4.5,11.1-9.7,17.4-15.9l-7.1-7.1c-6,6-11.5,11-16.7,15.3Z"/>
        <path class="cls-15" d="M50.9,48.1l-10-1.3c-1,7.7-1.9,15.4-2.6,23.1l10,.9c.7-7.6,1.6-15.2,2.6-22.8Z"/>
        <path class="cls-15" d="M55.6,137.6l-9.6,2.9c.8,2.6,1.7,5.2,2.6,7.7,1.8,4.9,4,9.8,6.5,14.5l8.9-4.7c-2.3-4.3-4.3-8.8-5.9-13.3-.9-2.4-1.7-4.8-2.4-7.2Z"/>
        <path class="cls-15" d="M48.5,93.3l-10,.5c.4,8.4,1.2,16.1,2.3,23.5l9.9-1.5c-1.1-7-1.8-14.4-2.2-22.4Z"/>
        <path class="cls-15" d="M76.1,176.4l-7.8,6.4c5.3,6.4,11.1,12.1,17.3,16.9l6.1-8c-5.6-4.3-10.9-9.5-15.7-15.3Z"/>
        <path class="cls-15" d="M418.9,43.8l1,8.1c6.1-.8,12.3-1.3,18.4-1.6l-.4-8.1c-6.3.3-12.7.9-19,1.6Z"/>
        <path class="cls-15" d="M376.7,51.7l2.5,8.8c6.7-1.9,13.5-3.6,20.2-5l-1.9-9c-7,1.4-14,3.2-20.9,5.1Z"/>
        <path class="cls-15" d="M455.9,43.5l-1,7.9c3.4.4,6.8.9,10.2,1.5l1.3-7.9c-3.5-.6-7-1.1-10.6-1.6Z"/>
        <path class="cls-15" d="M483.5,53.3l-2.7,6c2.6,1.2,5.1,2.4,7.6,3.7l3-5.8c-2.6-1.4-5.2-2.6-7.9-3.9Z"/>
        <path class="cls-15" d="M255.7,118.5l6.8,7.4c5.5-5.1,11.4-10,17.3-14.7l-6.2-7.9c-6.2,4.8-12.2,9.9-17.9,15.2Z"/>
        <path class="cls-15" d="M333.7,66.8l4.2,9.1c6.8-3.1,13.9-6.1,21-8.7l-3.5-9.4c-7.3,2.7-14.6,5.7-21.7,9Z"/>
        <path class="cls-15" d="M228.1,146.8l-4.8,5.2,7.4,6.8,4.8-5.2c3.6-3.9,7.3-7.9,10.9-11.7l-7.3-6.9c-3.6,3.9-7.3,7.8-11,11.8Z"/>
        <path class="cls-15" d="M292.7,89.6l5.5,8.4c6.3-4.2,12.8-8.1,19.4-11.8l-4.9-8.8c-6.8,3.8-13.6,7.9-20.1,12.2Z"/>
        <polygon class="cls-15" points="47.7 10.6 5 53.2 10.1 58.3 47.1 27.3 81.4 60.8 87.1 56.2 47.7 10.6"/>
      </g>
      <rect class="cls-7" width="500" height="230"/>
    </g>
  </g>
</svg>