<?xml version="1.0" encoding="UTF-8"?>
<svg id="Layer_1" xmlns="http://www.w3.org/2000/svg" viewBox="0 0 500 230">
  <path d="M389.53,211.84c-7.83,3.15-15.91,4.97-24.02,5.43l-.56-10.03c7.01-.39,14.01-1.98,20.83-4.72l3.74,9.32Z" fill="#115052"/>
  <path d="M343.68,205.01l-2.58,9.7c-7.45-1.98-15-5.13-22.42-9.38l4.98-8.72c6.77,3.87,13.31,6.61,20.02,8.4Z" fill="#115052"/>
  <path d="M305.47,183.87l-6.39,7.75c-5.44-4.49-11.12-9.69-17.36-15.92l7.09-7.11c6.01,6,11.46,11,16.66,15.28Z" fill="#115052"/>
  <path d="M445.49,48.1l9.95-1.28c.99,7.68,1.9,15.39,2.63,23.12l-9.99.94c-.71-7.61-1.62-15.21-2.59-22.77Z" fill="#115052"/>
  <path d="M440.75,137.57l9.61,2.91c-.79,2.6-1.65,5.18-2.59,7.73-1.79,4.9-3.96,9.79-6.46,14.51l-8.88-4.68c2.28-4.33,4.27-8.8,5.91-13.29.88-2.37,1.67-4.77,2.41-7.18Z" fill="#115052"/>
  <path d="M447.89,93.3l10.03.5c-.42,8.4-1.18,16.09-2.34,23.49l-9.92-1.55c1.1-7.05,1.83-14.39,2.23-22.44Z" fill="#115052"/>
  <path d="M420.23,176.39l7.76,6.38c-5.27,6.39-11.09,12.06-17.33,16.86l-6.12-7.95c5.63-4.34,10.92-9.48,15.69-15.29Z" fill="#115052"/>
  <path d="M77.46,43.8l-1.02,8.1c-6.11-.77-12.29-1.3-18.37-1.59l.38-8.15c6.3.3,12.69.85,19.01,1.64Z" fill="#115052"/>
  <path d="M119.65,51.67l-2.54,8.84c-6.67-1.91-13.47-3.58-20.2-4.97l1.85-9.01c6.96,1.43,13.98,3.16,20.88,5.13Z" fill="#115052"/>
  <path d="M40.48,43.54l.97,7.91c-3.41.42-6.82.91-10.22,1.49l-1.34-7.86c3.52-.6,7.04-1.12,10.59-1.55Z" fill="#115052"/>
  <path d="M12.9,53.33l2.74,5.96c-2.57,1.18-5.11,2.43-7.63,3.73l-3.02-5.82c2.6-1.35,5.24-2.64,7.9-3.87Z" fill="#115052"/>
  <path d="M240.64,118.52l-6.8,7.39c-5.53-5.09-11.35-10.03-17.3-14.67l6.18-7.91c6.16,4.81,12.19,9.92,17.92,15.2Z" fill="#115052"/>
  <path d="M162.67,66.82l-4.19,9.12c-6.84-3.14-13.9-6.07-20.98-8.7l3.5-9.41c7.31,2.72,14.6,5.74,21.67,8.99Z" fill="#115052"/>
  <path d="M268.22,146.84l4.78,5.18-7.36,6.83-4.8-5.2c-3.64-3.95-7.26-7.87-10.88-11.7l7.3-6.89c3.64,3.86,7.29,7.81,10.96,11.79Z" fill="#115052"/>
  <path d="M203.67,89.61l-5.55,8.37c-6.29-4.16-12.82-8.13-19.4-11.78l4.87-8.78c6.81,3.78,13.56,7.88,20.07,12.19Z" fill="#115052"/>
  <polygon points="448.69 10.6 491.35 53.2 486.25 58.33 449.24 27.32 414.91 60.83 409.3 56.25 448.69 10.6" fill="#115052"/>
</svg>