<?xml version="1.0" encoding="UTF-8"?>
<svg id="Layer_1" xmlns="http://www.w3.org/2000/svg" viewBox="0 0 85.04 36.28">
  <g>
    <path d="M78.09,8.15c1.4,0,2.8,0,4.2,0,.22,0,.45,0,.67.05.72.13,1.29.45,1.56,1.14.04.1.13.16.23.16h.09s0-2.08,0-2.08c0-.14-.11-.25-.25-.25h-11.12v.09c0,.13.1.24.23.25.02,0,.03,0,.05,0,.64.06,1.15.47,1.3,1.08.06.23.08.48.08.72,0,5.16,0,10.32,0,15.47,0,.42-.02.84-.07,1.26-.07.64-.39,1.06-.91,1.19-.06.01-.12.02-.18.03-.12.02-.21.12-.21.25v.12s5.63,0,5.63,0v-.12c0-.12-.09-.23-.21-.24-.02,0-.04,0-.06,0-.5-.08-.88-.37-1.03-.87-.08-.24-.14-.5-.14-.75,0-1.24,0-4.58,0-8.05.65,0,1.31,0,1.96,0,.61,0,.94.2,1.09.69.03.1.13.18.24.18h.06s0-2.7,0-2.7h-.06c-.12,0-.22.08-.24.2-.07.32-.24.46-.58.52-.14.02-.28.04-.42.04-.69,0-1.37,0-2.06,0,0-3.55,0-7.03,0-8.37.05,0,.1,0,.14,0Z" fill="#55c7e0"/>
    <g>
      <path d="M41.08,22.78c.19,1.15.37,2.29.56,3.45.55-.29,1.1-.52,1.67-.73-.47-.67-.77-1.33-1.03-2.08-.17-.49-.69-.77-1.19-.64h0Z" fill="#55c7e0"/>
      <path d="M53.13,21.62c-.17-1.13-.71-2.07-1.52-2.87-.73-.72-1.58-1.26-2.47-1.75-.84-.46-1.7-.89-2.53-1.36-.65-.37-1.27-.79-1.78-1.35-.91-.99-1.17-2.16-.9-3.45.23-1.13.88-1.94,1.96-2.37.54-.21,1.1-.26,1.68-.23,1.05.05,1.91.46,2.56,1.29.49.62.79,1.34,1.03,2.09,0,0,0,0,0,0,.14.43.58.7,1.03.62l.1-.02c-.02-.21-.42-3.44-.51-4.2-.01-.1-.08-.18-.17-.21-1.45-.44-3.06-.76-4.58-.62-1.07.1-2.08.38-3.01.93-1.96,1.16-2.97,3.39-2.54,5.62.25,1.3.97,2.32,1.96,3.17.76.66,1.63,1.15,2.51,1.64.9.51,1.81,1.01,2.68,1.57.67.42,1.22.98,1.59,1.7.44.87.48,1.79.29,2.72-.21,1.01-.74,1.83-1.68,2.3-1.03.5-2.08.58-3.13.29-.69.39-1.19.7-1.87,1.05,1.42.38,2.67.35,4.12.08,1.46-.27,2.76-.88,3.78-1.99,1.22-1.32,1.67-2.89,1.41-4.66Z" fill="#55c7e0"/>
    </g>
    <g>
      <path d="M58.93,27.31c-.05,0-.1,0-.15-.02-.35-.05-.7-.08-1.04-.18-.52-.17-.82-.71-.69-1.24.12-.45.25-.9.4-1.35-.54-.09-.92-.13-1.4-.11-.17.44-.33.88-.5,1.32-.1.27-.23.53-.38.78-.3.48-.74.76-1.32.79-.06,0-.12,0-.17,0-.18,0-.33.16-.33.34h5.9,0c0-.18-.14-.33-.32-.34Z" fill="#55c7e0"/>
      <path d="M72.51,27.25h0c-.37-.03-.67-.18-.9-.43-.11-.12-.2-.27-.26-.42l-7.79-19.07c-.04-.09-.13-.16-.23-.16h-.51c-.11,0-.2.06-.24.16-.43,1.14-.87,2.2-1.3,3.34-1.64,4.3-2.82,7.41-4.34,11.38.37.02.87.06,1.34.12,1.11-3.05,2.24-6.08,3.36-9.12.16-.43.5-1.34.5-1.34h0s1.91,4.82,1.91,4.82c-.54,0-1.3,0-1.98,0,0,0,0,0-.01,0-.19,0-.38,0-.55,0-.1,0-.2.07-.23.16l-.23.62s2.01,0,3.31,0l3.26,8.08c-3.79-1.62-8.17-2.99-13.8-2.87.02.39-.01.82-.13,1.24,2.44-.31,5.24.34,6.51.66,2.39.59,4.81,1.66,6.77,3.17.04.03.1.05.15.05h5.61s0-.14,0-.14c0-.13-.1-.25-.24-.26Z" fill="#55c7e0"/>
    </g>
    <path d="M38.49,27.25h0c-.37-.03-.67-.18-.9-.43-.11-.12-.27-.46-.33-.61h0s0-.02-.01-.03l-7.7-18.85c-.04-.09-.13-.15-.23-.16h-.49c-.1,0-.2.06-.23.16-.43,1.14-.87,2.2-1.3,3.34-1.91,5.02-3.82,10.03-5.74,15.05-.1.27-.23.53-.38.78-.3.48-.74.76-1.32.79-.09,0-.17,0-.26.01-.14,0-.24.12-.24.25v.08h5.9v-.09c0-.13-.1-.24-.24-.25-.08,0-.29-.02-.37-.02-.36-.02-.59-.08-.93-.19-.51-.17-.8-.7-.67-1.22.17-.66.37-1.31.6-1.95,1.32-3.63,2.66-7.25,3.99-10.87.16-.43.5-1.34.5-1.34h0s1.91,4.82,1.91,4.82c-.73,0-1.85,0-2.64,0-.1,0-.2.07-.23.16l-.23.62s2.12,0,3.41,0l3.26,8.08c.14.35.24.7.23,1.09-.01.24-.09.45-.24.61-.09.1-.23.16-.37.2-.11.03-.19.13-.19.24v.12h1.43s.05,0,.08,0c0,0,0,0,0,0h4.14v-.14c0-.13-.1-.25-.24-.26Z" fill="#55c7e0"/>
    <path d="M20.16,34.85c-1.61,0-3.15-.13-4.57-.4-1.56-.29-3.03-.75-4.37-1.36-2.72-1.23-5-3.28-6.42-5.77-1.19-2.09-1.88-4.54-1.99-7.08-.11-2.52.36-5.02,1.34-7.24,1.12-2.41,3.05-4.43,5.59-5.83,1.19-.65,2.48-1.16,3.84-1.5.99-.25,2-.41,3.01-.47-2.54.48-4.89,1.45-6.88,2.84-3.21,2.28-5.03,5.6-5.27,9.59-.28,3.95.9,7.73,3.23,10.36,2.32,2.66,6.05,4.3,10.51,4.61.66.05,1.34.07,2.02.07,2.6,0,5.44-.34,8.68-1.05,2.74-.58,5.51-1.49,8.24-2.69,1.53-.67,2.99-1.39,4.4-2.08,2.25-1.1,4.37-2.14,6.55-2.91.64-.23,1.26-.42,1.87-.59.09.34.06.95-.06,1.32-.89.32-1.82.71-2.78,1.17-.96.46-1.9.95-2.6,1.33-.25.14-.5.27-.75.41-3.65,1.99-7.42,4.06-11.48,5.29-2.24.69-4.6,1.22-7.02,1.57-1.81.26-3.53.39-5.11.39Z" fill="#55c7e0"/>
    <path d="M3.42,8.82c0-.4-.26-.61-.62-.5-.48.14-.95.83-.91,1.34.03.38.31.54.67.41.45-.17.86-.76.86-1.25Z" fill="#55c7e0"/>
    <path d="M3.55,10.56c-.47.26-.74.99-.52,1.41.12.23.37.3.63.18.44-.19.75-.79.66-1.26-.08-.39-.4-.53-.77-.33Z" fill="#55c7e0"/>
    <path d="M9.19,11.6c0-.3-.23-.48-.53-.44-.52.07-1.06.62-1.13,1.14-.04.29.15.52.44.52.54,0,1.22-.67,1.22-1.21Z" fill="#55c7e0"/>
    <path d="M6.84,14.87c-.04-.47-.43-.68-.84-.45-.34.19-.51.49-.53.87-.02.35.21.59.55.59.02,0,.08,0,.13-.02.39-.1.73-.6.69-.99Z" fill="#55c7e0"/>
    <path d="M5.71,18.21c-.34.17-.58.59-.55.96.03.4.38.61.75.46.35-.14.61-.53.61-.92,0-.48-.38-.72-.81-.5Z" fill="#55c7e0"/>
    <path d="M1.62,11.78c-.17-.06-.31,0-.43.12-.24.22-.35.5-.36.81,0,.05,0,.09,0,.13.02.18.07.34.26.42.18.08.33-.01.46-.13.27-.27.38-.6.33-.97-.02-.16-.09-.3-.26-.37Z" fill="#55c7e0"/>
    <path d="M8.22,20c.44-.66,1.07-1.12,1.77-1.48,1.81-.92,3.7-1.01,5.63-.48.82.22,1.64.37,2.49.19,1.24-.25,2.17-.93,2.76-2.06.15-.29.15-.5.15-.5,0,0-.08.11-.19.23-1.03,1.17-2.32,1.58-3.83,1.24-.75-.17-1.48-.43-2.23-.59-1.29-.28-2.6-.38-3.92-.13-.98.18-1.88.55-2.61,1.24-1.14,1.07-1.7,2.4-1.71,3.96,0,1.01.28,1.94.83,2.78.05.08.13.19.22.31-.11-.69-.12-.82-.14-1.12-.04-.63.01-1.25.14-1.87.13-.6.29-1.19.64-1.71Z" fill="#55c7e0"/>
    <path d="M3.33,6.69c.22.24.42.47.63.68.6.6,1.26,1.09,2.1,1.29.27.07.55.09.79.03-.38-.41-.8-.79-1.14-1.23-.44-.55-.75-1.18-.69-1.92.04-.43.2-.82.59-1.02.7-.35,1.45-.43,2.22-.31.85.14,1.6.5,2.31.95.07.05.14.09.21.13-.2-.98-.93-1.6-1.65-2.21,0,0,.12-.04.16-.05,1.98-.51,3.98-.67,6.02-.41,1.17.15,2.28.46,3.33,1,.93.48,1.47,1.22,1.48,2.31,0,.59.28,1.02.79,1.34.9.58,1.78,1.19,2.67,1.8.08.06.16.13.22.21.19.24.13.41-.17.48-.55.13-.9.58-.79,1.1.08.35.29.69.48.97.13.19.13.44,0,.63-.23.34-.46.7-.76.97-.5.46-1.09.76-1.79.74-.46-.02-.79-.28-.88-.73-.04-.19-.04-.39-.03-.58.01-.28.06-.57.08-.85.07-1.17.09-2.34-.07-3.5-.08-.59-.22-1.18-.46-1.73-.25-.57-.7-.85-1.32-.84-.59.01-1.14.21-1.66.48-1.42.74-2.78,1.58-4.02,2.61-.46.38-1.06.89-1.56,1.38l.46-.23c1.23-.65,2.5-1.19,3.88-1.42.68-.11,1.37-.14,2.04.06.71.21,1.24.62,1.32,1.43.03.33-.05.65-.18.95-.17.39-.35.78-.53,1.16-.27.6-.62,1.18-.7,1.84-.06.47.24,1.04.65,1.27.7.4,1.39.34,2.07.24.99-.14,1.88-.52,2.58-1.26.58-.61.93-1.36,1.21-2.14.02-.06.06-.12.1-.18.46-.54.84-1.11,1.01-1.81.11-.45.02-.81-.39-1.1-.97-.67-1.91-1.36-2.87-2.03-.38-.26-.63-.61-.73-1.05-.09-.38-.15-.77-.25-1.14-.15-.56-.35-1.1-.79-1.51-.5-.48-1.09-.84-1.71-1.13-1.54-.7-3.17-.93-4.85-.96-1.25-.02-2.5.11-3.72.37-.7.15-1.39.35-2.03.67-.06.03-.11.07-.14.09.44.16.83.34,1.2.58.28.18.36.37.36.37,0,0-.25-.13-.3-.14-1.2-.46-2.35-.27-3.45.37-.4.5-.6,1.05-.53,1.69.05.46.21.87.43,1.27.06.11.21.41.21.41-.61-.48-.84-1.28-.98-2.02-.09.06-.17.1-.24.15-.63.41-1.16.92-1.62,1.51-.75.94-1.35,1.97-1.64,3.16-.05.2-.07.41-.1.62h.04c.79-1.46,1.72-2.81,3.08-3.81Z" fill="#55c7e0"/>
  </g>
  <rect width="85.04" height="36.28" fill="none"/>
</svg>